<svg width="990.65" height="469.11" viewBox="0 0 262.11 124.12" xmlns="http://www.w3.org/2000/svg">
  <g fill="none" stroke="#0f0">
    <path d="M2.94 54.34l-.06-.03-.07-.03-.06-.04-.07-.03-.06-.05-.06-.04-.05-.05-.05-.05-.06-.05-.04-.06-.05-.06-.04-.06-.04-.06-.04-.06-.03-.07-.03-.07-.03-.07-.02-.07-.02-.07-.01-.07-.02-.07v-.07l-.01-.08V52.81l.01-.07.02-.07.01-.08.02-.07.02-.07.03-.07L22.87 2.32l.05-.1.05-.1.06-.08.07-.09.08-.08.08-.07.08-.07.1-.07.1-.05.09-.05.1-.04.1-.03.08-.02.1-.02.12-.02h.22l.07.01.07.01.08.02.07.02.1.03.07.02.56.24 1.79.71 1.79.67 1.8.62 1.83.59 1.83.53 1.85.5 1.86.45 1.87.4 1.88.36 1.89.32 1.89.27 1.9.22 1.9.18 1.91.14 1.91.08 1.91.05h1.92L59 7.8l1.93-.1.69-.03h.22l.1.02.08.02.1.02.08.03.47.18.29.1 1.85.67 1.86.61 1.88.57 1.9.53 1.9.47 1.91.43 1.93.39 1.93.33 1.95.3.33.04.07.01.08.02.1.03.07.03.3.11 16.67 6.91.9.38.96.43 1.82.76 1.84.7 1.87.67 1.87.62 1.9.57 1.9.53 1.91.47 1.93.43 1.94.39 1.95.33 1.95.29 1.96.24 1.97.19 1.97.14 1.98.09 1.97.04h1.98l1.97-.06 1.97-.1 1.97-.15 1.97-.2 1.96-.25 1.95-.3 1.95-.34 1.93-.4 1.93-.44 1.92-.48 1.9-.54 1.89-.58 1.87-.63 1.86-.67 1.84-.73 1.83-.76 1.65-.72 16.47-6.83.3-.11.06-.03.11-.03.07-.02.07-.01.33-.05 1.97-.29 1.95-.34 1.94-.39 1.93-.43 1.92-.48 1.9-.53 1.9-.58 1.88-.62 1.87-.68.66-.24.07-.02.07-.02.11-.03h.11l.07-.01h.11l.77.04 2 .1 2.02.05h2.02l2.01-.06 2.02-.11 2-.16 2-.2 2-.26 2-.3 1.98-.37 1.97-.4 1.97-.46 1.95-.5 1.93-.56 1.93-.6 1.9-.66 1.9-.7 1.87-.75.56-.23.1-.04.08-.02.1-.03.11-.02H238.1l.1.03.11.03.07.02.07.03.1.04.07.04.06.03.1.07.05.04.08.07.05.06.08.08.04.06.04.06.06.1.04.06.04.1 20.73 50.02.02.07.02.07.02.07.02.08.01.07.01.07v.07l.01.08v.1l-.02.12-.02.1-.03.11-.03.1-.04.1-.06.1-.03.07-.07.1-.06.08-.08.08-.08.07-.09.07-.09.07-.1.05-.1.05-15.8 6.55-.4.16-.08.03-.12.04-1.57.52-1.85.66-1.83.7-1.81.76-1.8.8-1.77.83-1.76.88-1.73.93-1.7.97-1.7 1-1.65 1.06L222 71.3l-1.6 1.13-1.58 1.17-1.55 1.2-1.52 1.25-1.49 1.28-1.45 1.32-1.42 1.36-1.4 1.38-1.35 1.43-1.31 1.45-1.29 1.49-1.24 1.52-1.21 1.54-1.17 1.58-1 1.43-.05.06-.08.08-.08.08-.08.07-.1.07-.1.06-.1.05-.1.04-9.3 3.85-1.73.74-1.7.78-1.7.82-1.66.86-1.65.9-1.62.93-1.6.97-1.58 1-1.57 1.06-1.73 1.19-1.53 1.09-1.5 1.11-1.49 1.16-1.45 1.18-1.42 1.22-1.4 1.26-1.36 1.28-1.33 1.32-1.31 1.35-6.62 7.02-.05.05-.05.05-.06.05-.06.04-.06.04-.1.06-.06.03-.07.03-.07.03-.07.02-.07.02-.07.02-.07.01-.08.01h-.07l-.07.01h-.11l-.08-.01-.1-.02-.08-.01-.07-.02-.94-.28-1.86-.51-1.88-.46-1.89-.42-1.9-.37-1.9-.33-1.92-.28-1.92-.23-1.92-.19-1.93-.14-1.94-.1-1.93-.04h-1.93l-1.94.05-1.93.09-1.93.14-1.93.19-1.92.23-1.91.28-1.9.33-1.9.37-1.9.42-1.87.46-1.87.5-.94.29-.07.02-.07.01-.1.02H107.56l-.1-.01-.12-.03-.1-.03-.07-.02-.07-.03-.1-.05-.06-.04-.06-.04-.06-.04-.06-.05-.06-.04-.05-.06-6.64-7.04-1.31-1.35-1.34-1.32-1.36-1.28-1.4-1.26L93.2 110l-1.45-1.18-1.48-1.16-1.5-1.11-1.54-1.1-1.73-1.18-1.56-1.05-1.58-1.01-1.6-.97-1.63-.94-1.64-.9-1.67-.85-1.69-.82-1.7-.78-1.73-.74-9.31-3.85-.1-.04-.1-.06-.1-.05-.09-.07-.09-.07-.08-.08-.07-.08-.05-.06-1-1.43-1.17-1.58-1.21-1.55-1.25-1.51-1.28-1.49-1.32-1.45-1.35-1.43-1.4-1.38-1.41-1.36-1.46-1.32-1.48-1.28-1.52-1.25-1.55-1.2-1.58-1.17-1.6-1.13-1.63-1.1-1.66-1.04-1.69-1.01-1.7-.97-1.74-.93-1.75-.88-1.78-.84-1.8-.8-1.8-.75-1.84-.7-1.85-.66-1.57-.52-.12-.04-.07-.03-.4-.17-15.78-6.53" stroke-width=".26458"/>
    <path d="M144.73 111.17l9.75 9.2h0l.02.02h0l.03.02h0l.03.02h0l.03.01h0l.03.01h0l.04.01h.13l.03-.01h.01l.03-.02h0l.03-.01h0l.03-.02h0l.02-.02h0l.03-.03h0l9.2-9.74h0l.02-.03h0l.02-.03h0l.01-.03h0l.02-.03h0v-.03h.01v-.04h0l.01-.03h0v-.03h0v-.04h0v-.03h0l-.02-.03h0v-.04h-.01l-.01-.03h0l-.02-.03h0l-.02-.02h0l-.03-.03h0l-9.74-9.2h0l-.03-.02h0l-.03-.02h0l-.03-.02h0l-.03-.01h0l-.03-.01h0-.03 0l-.04-.01h-.03 0-.04 0-.03 0l-.03.01h0l-.04.02h0l-.03.01h0l-.03.02h0l-.02.02h0l-.03.03h0l-9.2 9.75h0l-.02.02h0l-.02.03h0l-.01.03h0l-.02.03h0v.03h0l-.02.04h0v.03h0v.04h0v.03h0v.03h0l.02.04h0v.03h.01l.01.03h0l.02.03h0l.02.03h0l.03.02h0M97.94 110.62l9.2 9.74h0l.02.03h0l.02.02h0l.03.02h0l.03.01h0l.03.02h.04l.03.01h.14l.03-.01h0l.03-.02h0l.03-.01h0l.03-.02h0l.03-.03h0l9.74-9.2h0l.03-.02h0l.02-.03h0l.02-.02h0l.01-.03h0l.01-.04h0l.01-.03h0l.01-.03h0v-.04h0v-.03h0v-.04h0v-.03h0l-.02-.03h0l-.01-.03h0l-.02-.03h0l-.02-.03h0l-.02-.03h0l-9.2-9.75h0l-.02-.02h0l-.03-.02h0l-.03-.02h0l-.03-.02h0l-.03-.01h0l-.03-.01h0-.04 0-.03 0-.07 0-.03 0l-.03.01h0l-.04.01h0l-.03.02h0l-.02.02h0l-.03.02h0l-9.75 9.2h0l-.02.03h0l-.02.02h0l-.02.03h0l-.02.03h0v.03h-.01v.04h-.01v.03h0v.03h0v.04h0v.03h0v.04h0l.01.03h0l.02.03h0l.01.03h0l.02.03h0l.03.02h0M160.73 95.51l7.6 11.03h.01l.02.03h0l.02.02h0l.03.03h0l.02.02h0l.03.01h0l.03.02h0l.04.01h0l.03.01h.14l.03-.01h0l.03-.01h0l.03-.02h0l.03-.02h0l11.04-7.6h0l.02-.03h0l.03-.02h0l.02-.03h0l.02-.02h0l.02-.03h0l.01-.03h0l.01-.04h0l.01-.03h0v-.03h0v-.04h0v-.03h0v-.04h0v-.03h0l-.02-.03h0l-.01-.03h0l-.02-.03h0l-7.6-11.04h-.01l-.02-.02h0l-.02-.03h0l-.03-.02h0l-.02-.02h0l-.03-.02h0l-.04-.01h0l-.03-.01h0l-.03-.01h0-.04 0-.03 0-.03 0-.04 0-.03v.01l-.03.01h0l-.03.01h0l-.03.02h0l-11.04 7.6v.01l-.02.02h0l-.03.02h0l-.02.03h0l-.02.03h0l-.02.03h0l-.01.03h0l-.01.03h0l-.01.03h0v.04h0v.03h0v.04h0v.03h0v.03h0l.02.04h0l.01.03h0l.02.03h0M82.24 99l11.04 7.6v.01l.02.02h0l.03.01h0l.04.01h0l.03.02h.17v-.01l.03-.01h0l.03-.01h0l.03-.02h0l.03-.02h0l.03-.02h0l.02-.03h0l.02-.03h0l7.6-11.03h.01l.02-.03h0l.01-.03h0l.01-.03h0l.01-.04h0v-.03h0l.01-.03h0v-.04h0v-.03h0l-.01-.04h0l-.01-.03h0l-.02-.03h0l-.01-.03h0l-.02-.03h0l-.03-.02h0l-.02-.03h0l-.03-.02h0l-11.03-7.6h0l-.03-.02h0l-.03-.02h0l-.03-.01h0-.04v-.01h-.03 0-.03 0-.04 0-.03 0-.04 0l-.03.02h0l-.03.01h0l-.03.02h0l-.03.02h0l-.02.02h0l-.03.02h0l-.02.03h0l-7.6 11.04h0l-.02.02h0l-.02.03h0v.04h-.01v.03h0l-.01.03h0v.04h0v.03h0v.04h0v.03h0l.02.03h0l.01.03h0l.02.03h0l.02.03h0l.02.03h0l.03.02h0l.02.02h0M179.67 83.51l5.12 12.38h0l.02.03h0l.01.03h0l.03.03h0l.02.02h0l.02.03h0l.03.02h0l.03.01h0l.03.02h0l.03.01h0l.04.01h.17l.03-.02h0l12.38-5.13h.03v-.01l.03-.02h0l.03-.02h0l.02-.02h0l.03-.03h0l.02-.02h0l.01-.03h0l.02-.03h0l.01-.03v-.01l.01-.03h0v-.03h0v-.04h0v-.03h0v-.07h0l-.02-.03h0l-5.13-12.38h0l-.01-.03h0l-.02-.03h0l-.02-.03h0l-.02-.02h0l-.03-.03h0l-.02-.02h0l-.03-.02h0l-.03-.01h0l-.04-.01h0l-.03-.01h0-.03 0-.04 0-.03 0-.04 0-.03 0l-.03.02h0l-12.38 5.13h0-.03v.01l-.03.02h0l-.03.02h0l-.03.02h0l-.02.03h0l-.02.02h0l-.02.03h0l-.01.03h0l-.01.04h0l-.01.03h0v.03h0l-.01.04h0v.03h0v.04h0l.01.03h0l.02.03h0M64.47 90.95l12.38 5.13h.03v.01h.04l.03.01h.14v-.01l.03-.01h0l.03-.02h0l.03-.01h0l.03-.02h0l.02-.03h0l.03-.02h0l.02-.03h0l.01-.03h0l.02-.03h0l5.13-12.38h0v-.03h.01v-.04h0l.01-.03h0v-.03h0v-.04h0v-.03h0l-.01-.04h0l-.01-.03h0l-.02-.03h0l-.01-.03h0l-.02-.03h0l-.03-.02h0l-.02-.03h0l-.03-.02h0l-.03-.01h0l-.03-.02h0l-12.38-5.13h0-.03 0l-.03-.02h0-.04 0-.03 0-.04 0-.03 0l-.03.01h0l-.04.01h0l-.03.02h0l-.03.01h0l-.03.02h0l-.02.03h0l-.02.02h0l-.02.03h0l-.02.03h0l-.02.03h0L64.28 90.5h0v.03h0l-.02.04h0v.03h0v.03h0v.04h0v.03h0l.01.03v.01l.01.03h0l.02.03h0l.01.03h0l.03.03h0l.02.02h0l.02.02h0l.03.03h0l.03.01h0l.03.02h0M95.14 84.12l12.38 5.12h0l.03.02h.03l.04.01h.1l.03-.01h0l.04-.01h0l.03-.02h0l.03-.02h0l.02-.02h0l.03-.02h0l.02-.02h0l.02-.03h0l.02-.03h0l.02-.03h0l5.13-12.38h0v-.03h0l.02-.04h0v-.03h0v-.04h0v-.03h0v-.03h0l-.01-.04h0l-.01-.03h0l-.02-.03h0l-.02-.03h0l-.02-.03h0l-.02-.02h0l-.02-.03h0l-.03-.02h0l-.03-.02h0l-.03-.01h0l-12.38-5.13h0l-.03-.01h0-.04v-.01h-.03 0-.04 0-.03 0-.03 0-.04v.01l-.03.01h0l-.03.01h0l-.03.02h0l-.03.02h0l-.02.02h0l-.03.03h0l-.02.03h0l-.01.03h0l-.02.03h0l-5.13 12.38h0l-.01.03h0v.03h0l-.01.04h0v.03h0v.04h0v.03h0v.03h.01l.01.04h0l.01.03h0l.02.03h0l.02.02h0l.03.03h0l.02.02h0l.03.02h0l.03.02h0l.03.02h0M149 76.68l5.13 12.38h0l.01.03h0l.02.03h0l.02.02h0l.02.03h0l.03.02h0l.02.02h0l.03.02h0l.03.02h.04l.03.02h.14l.03-.01h0l.03-.01h0l12.38-5.13h0l.03-.02h0l.03-.01h0l.03-.02h0l.03-.03h0l.02-.02h0l.02-.03h0l.02-.03h0l.01-.03h0l.02-.03h0v-.03h0v-.04h0l.01-.03h0v-.04h0v-.03h0l-.01-.03h0l-.01-.04h0l-5.13-12.38h0l-.02-.03h0l-.01-.03h0l-.02-.02h0l-.03-.03h0l-.02-.02h0l-.03-.02h0l-.03-.02h0l-.03-.02h0-.03v-.01h-.04 0l-.03-.01h0-.03 0-.04 0-.03 0l-.04.01h0l-.03.01h0l-12.38 5.13h0l-.03.01h0l-.03.02h0l-.03.02h0l-.02.02h0l-.03.03h0l-.02.03h0l-.01.03h0l-.02.03h0l-.01.03h0l-.01.03h0v.04h0v.03h0v.04h0v.03h0v.03h0l.02.03h0M166.22 68.46l5.13 12.38h0v.03h.01l.02.03h0l.02.03h0l.02.02h0l.02.03h0l.03.02h0l.03.02h0l.03.01h0l.03.01h0l.04.01h.17l.03-.02h0l12.38-5.13h0l.03-.01h0l.03-.02h0l.03-.02h0l.02-.02h0l.03-.03h0l.02-.02h0l.02-.03h0l.01-.03h0l.01-.04h0l.01-.03h0v-.03h0v-.04h0v-.03h0v-.04h0v-.03h0l-.02-.03h0l-5.13-12.38h0l-.01-.03h0l-.02-.03h0l-.02-.03h0l-.02-.03h0l-.03-.02h0l-.02-.02h0l-.03-.02h0l-.03-.01h0l-.04-.01h0l-.03-.01h0-.03 0l-.04-.01h0-.03 0-.04 0l-.03.01h0l-.03.02h0L166.4 68h0l-.03.02h0l-.03.02h0l-.03.02h0l-.02.02h0l-.03.02h0l-.02.03h0l-.02.03h0l-.01.03h0l-.01.03h0l-.01.04h0v.03h0v.04h0v.03h0v.03h0v.04h0l.02.03h0M77.92 75.9l12.38 5.13h0l.03.01h0l.03.01h.17l.04-.02h0l.03-.01h0l.03-.02h0l.03-.02h0l.02-.02h0l.02-.03h0l.03-.02h0l.01-.03h0l.02-.03h0l5.13-12.39h0v-.03h0l.02-.03h0v-.03h0v-.04h0v-.03h0v-.04h0l-.01-.03h0l-.01-.03h0l-.02-.03h0l-.01-.03h0l-.02-.03h0l-.03-.03h0l-.02-.02h0l-.03-.02h0l-.03-.02h0l-.03-.01h0l-12.38-5.13h0l-.03-.01h0l-.04-.01h0-.03 0-.03 0-.04 0-.03 0-.04 0l-.03.02h0l-.03.01h0l-.03.02h0l-.03.02h0l-.02.02h0l-.03.03h0l-.02.03h0l-.01.02h0l-.02.04h0l-5.13 12.38h0v.03h-.01v.03h0l-.01.03h0v.04h0v.03h0v.04h0l.01.03h0l.01.03h0l.02.03h0l.01.03h0l.02.03h0l.03.03h0l.02.02h0l.03.02h0l.03.02h0l.03.01h0M185.98 16.6l5.12 12.38h0l.02.03h0l.02.03h0l.02.03h0l.02.03h0l.02.02h0l.03.02h0l.03.02h0l.03.01h0l.03.01h0l.04.01h.03l.03.01h.07l.04-.01h0l.03-.02h0l12.38-5.12h0l.03-.02h0l.03-.02h0l.03-.02h0l.02-.02h0l.03-.02h0l.02-.03h0l.01-.03h0l.02-.03h0l.01-.03h0l.01-.04h0v-.03h0v-.04h0v-.03h0v-.03h0v-.04h0l-.02-.03h0L199 11.2h0l-.01-.03h0l-.02-.03h0l-.02-.03h0l-.02-.02h0l-.03-.03h0l-.02-.02h0l-.03-.01h0l-.03-.02h0l-.04-.01h0l-.03-.01h0-.03 0-.04 0-.03 0-.04 0-.03 0l-.03.02h0l-12.38 5.13h0l-.03.01h0l-.03.02h0l-.03.02h0l-.03.02h0l-.02.03h0l-.02.02h0l-.02.03h0l-.01.03h0l-.01.04h0l-.01.03h0v.03h0l-.01.04h0v.03h0v.04h0l.01.03h0l.02.03h0M167.32 21.35l5.13 12.38h0l.01.03h0l.02.03h0l.02.03h0l.03.02h0l.02.03h0l.03.02h0l.03.02h0l.03.01h0l.03.01h0l.03.01h.17l.04-.02h0l12.38-5.13h.03v-.01l.03-.02h0l.02-.02h0l.03-.02h0l.02-.02h0l.02-.03h0l.02-.03h0l.02-.03h0v-.03h.01v-.04h0l.01-.03h0v-.04h0v-.03h0v-.03h0l-.01-.04h0l-.01-.03h0l-5.13-12.38h0l-.01-.03h0l-.02-.03h0l-.02-.03h0l-.02-.02h0l-.03-.03h0l-.03-.02h0l-.03-.02h0l-.03-.01h0l-.03-.01h0l-.03-.01h0-.04 0-.03 0-.04 0-.03 0-.03 0l-.04.02h0l-12.38 5.13h0l-.03.01h0l-.03.02h0l-.02.02h0l-.03.02h0l-.02.03h0l-.02.02h0l-.02.03h0l-.02.03h0v.04h0l-.02.03h0v.03h0v.04h0v.03h0v.04h0l.01.03h0l.01.03h0M76.82 28.8l12.38 5.12h0l.03.01h0l.03.01h.03l.04.01h.07l.03-.01h0l.03-.02h0l.03-.01h0l.03-.02h0l.03-.02h0l.03-.02h0l.02-.03h0l.02-.02h0l.02-.03h0l.01-.03h0l5.13-12.39h0l.01-.03h0l.01-.03h0v-.03h0v-.04h0v-.03h0v-.04h0v-.03h0l-.02-.03h0l-.01-.03h0l-.02-.03h0l-.02-.03h0l-.02-.02h0l-.03-.03h0l-.03-.02h0l-.03-.02h0l-.03-.01h0l-12.38-5.13h0l-.03-.01h0l-.03-.01h0-.04 0-.03 0-.03 0H82h0-.03 0l-.03.02h0l-.04.01h0l-.02.02h0l-.03.02h0l-.03.02h0l-.02.03h0l-.02.03h0l-.02.03h0l-.01.03h0l-5.13 12.38h0l-.01.03h0l-.01.03h0v.04h0l-.01.03h0v.03h0v.04h0l.01.03h0l.02.03h0l.01.04h0l.02.03h0l.02.02h0l.02.03h0l.03.02h0l.02.02h0l.03.02h0l.03.02h0M58.16 24.05l12.38 5.12h0l.03.02h.07v.01h.1l.04-.01h0l.03-.01h0l.03-.02h0l.03-.02h0l.03-.02h0l.02-.02h0l.03-.02h0l.02-.03h0l.01-.03h0l.02-.03h0l5.13-12.38h0v-.03h.01v-.04h0l.01-.03h0v-.04h0v-.03h0v-.03h0l-.01-.04h0l-.01-.03h0l-.02-.03h0l-.01-.03h0l-.02-.03h0l-.03-.02h0l-.02-.03h0l-.03-.02h0l-.03-.02h0l-.03-.01h0l-12.38-5.13h0l-.03-.01h0-.03V11h-.04 0-.03 0-.04 0-.03 0-.03v.01l-.04.01h0l-.03.01h0l-.03.02h0l-.03.02h0l-.02.02h0l-.02.03h0l-.02.03h0l-.02.03h0l-.02.03h0l-5.13 12.38h0v.03h0l-.02.03h0v.04h0v.03h0v.04h0v.03h0l.01.03h0l.01.04h0l.02.03h0l.01.03h0l.02.02h0l.03.03h0l.02.02h0l.03.02h0l.03.02h0l.03.02h0M37.87 23.27l12.38 5.13h.03l.03.02h.14l.03-.01h0l.03-.01h0l.03-.02h0l.03-.01h0l.03-.02h0l.03-.03h0l.02-.02h0l.02-.03h0l.02-.03h0l.01-.03h0l5.13-12.38h0l.01-.03h0l.01-.04h0v-.03h0v-.03h0v-.04h0v-.03h0v-.04h0l-.02-.03h0l-.01-.03h0l-.02-.03h0l-.02-.03h0l-.02-.02h0l-.03-.03h0l-.03-.02h0l-.02-.01h0l-.04-.02h0l-12.38-5.13h0-.03v-.01h-.03 0l-.03-.01h0-.04 0-.03 0-.04 0l-.03.01h0l-.03.01h0l-.03.02h0l-.03.01h0l-.03.02h0l-.03.03h0l-.02.02h0l-.02.03h0l-.02.03h0l-.01.03h0l-5.13 12.38h0l-.01.03h0l-.01.03v.04h0v.03h0v.04h0v.03h0v.04l.02.03h0l.01.03h0l.02.03h0l.02.03h0l.02.02h0l.03.02h0l.02.03h0l.03.01h0l.03.02h0M19.7 17.37l12.37 5.12h0l.03.01h0l.04.01h.03l.03.01h.07l.04-.01h0l.03-.02h0l.03-.01h0l.03-.02h0l.03-.02h0l.02-.02h0l.03-.03h0l.02-.02h0l.01-.03h0l.02-.03h0l5.13-12.39h0V9.9h.01v-.03h0l.01-.03h0v-.04h0v-.03h0v-.04l-.01-.03h0l-.01-.03h0l-.02-.03h0l-.01-.03h0l-.02-.03h0l-.03-.02h0l-.02-.03h0l-.03-.02h0l-.03-.02h0l-.03-.01h0L25.09 4.34h0l-.03-.01h0l-.03-.01h0-.04 0-.03 0-.04 0-.03 0-.03 0l-.04.02h0l-.03.01h0l-.03.02h0l-.03.02h0l-.02.02h0l-.02.03h0l-.02.03h0l-.02.03h0l-.02.03h0L19.5 16.9h0v.03h0l-.02.03h0v.04h0v.03h0v.07h0l.01.03h0l.01.03h0l.02.04h0l.01.03h0l.02.02h0l.03.03h0l.02.02h0l.03.02h0l.03.02h0l.03.02h0M206.27 15.83l5.13 12.38h0l.01.03h0l.02.03h0l.02.02h0l.02.03h0l.03.02h0l.03.02h0l.03.02h0l.03.02h.03v.01h.03l.04.01h.1l.03-.01h0l.04-.01h0l12.38-5.13h0l.03-.01h0l.03-.02h0l.02-.02h0l.03-.02h0l.02-.03h0l.02-.03h0l.02-.03h0l.02-.03h0v-.03h0l.02-.03h0v-.04h0v-.03h0v-.04h0v-.03h0l-.01-.03h0l-.01-.03h0l-5.13-12.39h0l-.01-.03h0l-.02-.03h0l-.02-.02h0l-.03-.03h0l-.02-.02h0l-.03-.02h0l-.03-.02h0l-.03-.02h0-.03 0l-.03-.02h0-.04 0-.03 0-.04 0-.03 0l-.03.01h0l-.04.01h0l-12.38 5.13h0l-.03.02h0l-.03.01h0l-.02.02h0l-.03.03h0l-.02.02h0l-.02.03h0l-.02.03h0l-.02.03h0v.03h-.01v.03h0l-.01.04h0v.03h0v.04h0v.03h0l.01.03h0l.01.04h0M224.45 9.92l5.12 12.38h0l.02.03h0l.02.03h0l.02.03h0l.02.02h0l.02.03h0l.03.02h0l.03.02h0l.03.01h0l.03.01h0l.04.01h.17l.03-.02h0l12.38-5.13h.03v-.01l.03-.02h0l.03-.02h0l.02-.02h0l.03-.02h0l.02-.03h0l.01-.03h0l.02-.03h0l.01-.03h0l.01-.04h0v-.03h0v-.04h0V17h0v-.03h0v-.04h0l-.02-.03h0l-5.13-12.38h0l-.01-.03h0l-.02-.03h0l-.02-.03h0l-.02-.02h0l-.03-.03h0l-.02-.02h0l-.03-.02h0l-.03-.01h0l-.04-.01h0l-.03-.01h0-.03 0-.04 0-.03 0-.04 0-.03 0l-.03.02h0l-12.38 5.13h0l-.03.01h0l-.03.02h0l-.03.02h0l-.03.02h0l-.02.03h0l-.02.02h0l-.02.03h0l-.01.03h0l-.01.04h0l-.01.03h0v.03h0l-.01.04h0v.03h0v.04h0l.01.03h0l.02.03h0M23.29 58.47l12.38 5.13h.03l.03.02h.14l.03-.01h0l.03-.01h0l.03-.02h0l.03-.01h0l.03-.02h0l.03-.03h0l.02-.02h0l.02-.03h0l.02-.03h0l.01-.03h0l5.13-12.38h0l.01-.03h0l.01-.04h0v-.03h0v-.03h0v-.04h0v-.03h0v-.04h0l-.02-.03h0l-.01-.03h0l-.02-.03h0l-.02-.03h0l-.02-.02h0l-.03-.03h0l-.03-.02h0l-.03-.01h0l-.03-.02h0l-12.38-5.13h0-.03v-.01h-.03 0l-.04-.01h0-.03 0-.03 0-.04 0l-.03.01h0l-.03.01h0l-.03.02h0l-.03.01h0l-.03.02h0l-.03.03h0l-.02.02h0l-.02.03h0l-.02.03h0l-.01.03h0L23.1 58.01h0l-.01.03h0l-.01.03h0v.04h0l-.01.03h0v.04h0v.03h0l.01.03h0l.02.04h0l.01.03h0l.02.03h0l.02.03h0l.02.02h0l.03.02h0l.02.02h0l.03.02h0l.03.02h0M220.85 51.03l5.13 12.38h0l.01.02h0l.02.03h0l.02.03h0l.03.03h0l.02.02h0l.03.02h0l.03.02h0l.03.01h0l.03.02h.03l.04.01h.1l.03-.01h0l.04-.01h0l12.38-5.13h0l.03-.02h0l.03-.01h0l.02-.02h0l.03-.03h0l.02-.02h0l.02-.03h0l.02-.03h0l.02-.03h0v-.03h.01v-.04h0l.01-.03h0v-.03h0v-.04h0v-.03h0l-.01-.04h0l-.01-.03h0l-5.13-12.38h0l-.01-.03h0l-.02-.03h0l-.02-.03h0l-.02-.02h0l-.03-.02h0l-.03-.03h0l-.03-.01h0l-.03-.02h0l-.03-.01h0-.03 0l-.04-.01h0-.03 0-.04 0-.03 0-.03v.01l-.04.01h0l-12.38 5.13h0l-.03.01h0l-.03.02h0l-.02.02h0l-.03.02h0l-.02.03h0l-.02.03h0l-.02.02h0l-.02.04h0v.03h0l-.02.03h0v.04h0v.03h0v.03h0v.04h0l.01.03h0l.01.03h0M200.55 51.8l5.13 12.38h0l.02.03h0l.01.03h0l.02.03h0l.03.03h0l.02.02h0l.03.02h0l.03.02h0l.03.01h0l.03.01h0l.04.01h.17l.03-.02h0l12.38-5.12h0l.03-.02h0l.03-.02h0l.03-.02h0l.02-.02h0l.02-.02h0l.03-.03h0l.01-.03h0l.02-.03h0l.01-.03h0v-.04h0l.01-.03h0v-.04h0v-.03h0v-.03h0v-.04h-.01l-.01-.03h0l-5.13-12.38h0l-.01-.03h0l-.02-.03h0l-.02-.03h0l-.02-.02h0l-.03-.03h0l-.03-.02h0l-.03-.02h0l-.03-.01h0l-.03-.01h0l-.03-.01h0-.04 0-.03 0-.03 0-.04 0-.03 0l-.03.02h0l-12.39 5.13h0l-.02.01h0l-.03.02h0l-.03.02h0l-.03.02h0l-.02.03h0l-.02.02h0l-.02.03h0l-.01.03h0l-.02.04h0v.03h0l-.01.03h0v.04h0v.03h0v.04h0l.01.03h0l.01.03h0M239.03 45.12l5.12 12.38h0l.02.03h0l.02.03h0l.02.03h0l.02.02h0l.02.03h0l.03.02h0l.03.02h0l.03.01h0l.03.01h0l.04.01h.17l.03-.02h0L257 52.56h.03v-.01l.03-.02h0l.03-.02h0l.02-.02h0l.03-.02h0l.02-.03h0l.02-.03h0l.01-.03h0l.01-.03v-.01l.01-.03h0v-.03h0v-.04h0v-.03h0v-.07h0l-.02-.03h0l-5.13-12.38h0l-.01-.03h0l-.02-.03h0l-.02-.03h0l-.02-.02h0l-.03-.03h0l-.02-.02h0l-.03-.02h0l-.03-.01h0l-.04-.01h0l-.03-.01h0-.03 0-.04 0-.03 0-.04 0-.03 0l-.03.02h0l-12.38 5.13h0-.03v.01l-.03.02h0l-.03.02h0l-.03.02h0l-.02.03h0l-.02.02h0l-.02.03h0l-.01.03h0l-.01.04h0l-.01.03h0v.03h0V45h0v.03h0v.04h0v.03h0l.02.03h0M5.11 52.56L17.5 57.7h0l.03.01h0l.03.01H17.73l.03-.02h0l.03-.01h0l.03-.02h0l.03-.02h0l.02-.02h0l.02-.03h0l.03-.03h0l.01-.03h0l.02-.03h0l5.13-12.38h0v-.03h0l.02-.03h0v-.04h0v-.03h0v-.03h0v-.04h0l-.01-.03h0l-.01-.03h0l-.02-.03h0l-.01-.03h0l-.02-.03h0l-.03-.03h0l-.02-.02h0l-.03-.02h0l-.03-.02h0l-.03-.01h0L10.5 39.53h0l-.03-.01h0l-.04-.01h0-.03 0l-.03-.01h0-.04 0-.03 0l-.04.01h0l-.03.02h0l-.03.01h0l-.03.02h0l-.03.02h0l-.02.02h0l-.03.03h0l-.02.02h0l-.01.03h0l-.02.03h0L4.92 52.12h0v.03H4.9v.03h0l-.01.03h0v.04h0v.03h0v.04h0l.01.03h0l.01.03h0l.02.03h0l.01.03h0l.02.03h0l.03.03h0l.02.02h0l.03.02h0l.03.02h0l.03.01h0M43.58 59.24l12.38 5.13h0l.03.01h0l.04.01h.17l.03-.02h0l.03-.01h0l.03-.02h0l.03-.02h0l.02-.02h0l.03-.03h0l.02-.03h0l.02-.02h0l.01-.04h0l5.13-12.38h0l.01-.03h0v-.03h.01v-.03h0v-.04h0v-.03h0v-.04h0v-.03h-.01l-.01-.03h0l-.01-.03h0l-.02-.03h0l-.02-.03h0l-.02-.03h0l-.03-.02h0l-.03-.02h0l-.03-.02h0l-.03-.01h0l-12.38-5.13h0l-.03-.01h0l-.03-.01h0-.04 0-.03 0-.04 0-.03 0-.03 0l-.04.02h0l-.03.01h0l-.03.02h0l-.02.02h0l-.03.02h0l-.02.03h0l-.02.02h0l-.02.03h0l-.02.03h0L43.4 58.8h0l-.02.03h0v.03h0v.03h-.01v.04h0v.03h0V59h0l.01.03h0l.01.03h0l.02.03h0l.02.03h0l.02.03h0l.02.03h0l.02.02h0l.03.02h0l.03.02h0l.03.01h0M181.9 56.55l5.13 12.38h0l.02.03h0l.01.03h0l.02.03h0l.03.02h0l.02.03h0l.03.02h0l.03.02h0l.03.01h0l.03.01h0l.03.01H187.46l.03-.02h0L199.87 64h.03v-.01l.03-.02h0l.03-.02h0l.02-.02h0l.02-.03h0l.02-.02h0l.02-.03h0l.02-.03h0v-.04h.01v-.03h0l.01-.03h0v-.04h0v-.03h0v-.07h-.01l-.01-.03h0l-5.13-12.38h0l-.01-.03h0l-.02-.03h0l-.02-.03h0l-.02-.02h0l-.03-.03h0l-.03-.02h0l-.03-.02h0l-.03-.01h0l-.03-.01h0l-.03-.01h0-.04 0-.03 0-.03 0-.04 0-.03 0l-.03.02h0l-12.39 5.13h0-.03v.01l-.02.02h0l-.03.02h0l-.03.02h0l-.02.03h0l-.02.02h0l-.02.03h0l-.01.03h0l-.02.04h0v.03h0l-.01.03h0v.04h0v.03h0v.04h0l.01.03h0l.01.03h0M62.23 64l12.38 5.12h0l.03.01h0l.04.01h.03l.04.01h.06l.04-.01h0l.03-.02h0l.03-.01h0l.03-.02h0l.03-.02h0l.02-.02h0l.03-.03h0l.02-.02h0l.02-.03h0l.01-.03h0l5.13-12.39h0l.01-.03h0v-.03h.01v-.03h0v-.04h0v-.03h0v-.04h0v-.03h-.01v-.03h-.01l-.01-.03h0l-.02-.03h0l-.02-.03h0l-.02-.03h0l-.03-.02h0l-.03-.02h0l-.03-.02h0L80 56.1h0l-12.38-5.13h0l-.03-.01h0l-.03-.01h0-.04 0-.03 0-.04 0-.03 0-.03 0l-.04.02h0l-.03.01h0l-.03.02h0l-.02.02h0l-.03.02h0l-.02.03h0l-.02.03h0l-.02.03h0l-.02.03h0l-5.12 12.38h0l-.02.03h0v.03h0v.04h-.01v.03h0v.03h0v.04h0l.01.03h0l.01.03h0l.02.04h0l.02.02h0l.02.03h0l.02.03h0l.02.02h0l.03.02h0l.03.02h0l.03.01h0M141.71 59.08l5.13 12.38h0l.01.03h0l.02.03h0l.02.02h0l.02.03h0l.03.02h0l.02.02h0l.03.02h0l.03.02h.04l.03.02h.14l.03-.01h0l.03-.01h0l12.38-5.13h0l.03-.02h0l.03-.01h0l.03-.02h0l.03-.03h0l.02-.02h0l.02-.03h0l.02-.03h0l.01-.03h0l.01-.03h0l.01-.03h0v-.04h0l.01-.03h0v-.04h0v-.03h0l-.01-.03h0l-.02-.04h0l-5.12-12.38h0l-.02-.03h0l-.02-.03h0l-.02-.02h0l-.02-.03h0l-.02-.02h0l-.03-.02h0l-.03-.02h0l-.03-.02h0-.03v-.01h-.04 0l-.03-.01h0-.07 0-.03 0l-.04.01h0l-.03.01h0l-12.38 5.13h0l-.03.01h0l-.03.02h0l-.03.02h0l-.02.02h0l-.03.03h0l-.02.03h0l-.01.03h0l-.02.03h0l-.01.03h0l-.01.03h0v.04h0v.03h0v.04h0v.03h0v.03h0l.02.03h0M102.43 66.52l12.38 5.13h.03l.03.01h0l.04.01h.1l.03-.01h0l.04-.01h0l.03-.02h0l.03-.02h0l.02-.02h0l.03-.02h0l.02-.02h0l.02-.03h0l.02-.03h0l.02-.03h0l5.12-12.38h0l.02-.03h0V59h0v-.03h.01v-.04h0v-.03h0v-.03h0l-.01-.04h0l-.01-.03h0l-.02-.03h0l-.02-.03h0l-.02-.03h0l-.02-.02h0l-.02-.03h0l-.03-.02h0l-.03-.02h0l-.03-.01h0l-12.38-5.13h0l-.03-.01h0-.04v-.01h-.03 0-.04 0-.03 0-.03 0-.04v.01l-.03.01h0l-.03.01h0l-.03.02h0l-.03.02h0l-.02.03h0l-.03.02h0l-.02.03h0l-.02.03h0l-.01.03h0l-5.13 12.38h0l-.01.03h0v.03h-.01v.04h0v.03h0v.04h0v.03h0v.03h.01l.01.04h0l.01.03h0l.02.03h0l.02.02h0l.02.03h0l.03.02h0l.03.02h0l.03.02h0l.03.02h0M85.21 58.3l12.38 5.13h0l.03.01h0l.04.01h.17l.03-.02h0l.03-.01h0l.03-.02h0l.03-.02h0l.02-.02h0l.03-.03h0l.02-.02h0l.01-.03h0l.02-.03h0l5.13-12.39h0v-.03h.01v-.03h0l.01-.03h0v-.04h0v-.03h0v-.04h0v-.03h-.01l-.01-.03h0l-.02-.03h0l-.01-.03h0l-.02-.03h0l-.03-.03h0l-.02-.02h0l-.03-.02h0l-.03-.02h0l-.03-.01h0L90.6 45.28h0l-.03-.01h0l-.03-.01h0-.04 0-.03 0-.04 0-.03 0-.03 0l-.04.02h0l-.03.01h0l-.03.02h0l-.02.02h0l-.03.02h0l-.02.03h0l-.02.03h0l-.02.02h0l-.02.04h0l-5.13 12.38h0v.03h0l-.02.03h0v.03h0v.04h0v.03h0v.04h0l.01.03h0l.01.03h0l.02.03h0l.02.03h0l.02.03h0l.02.03h0l.02.02h0l.03.02h0l.03.02h0l.03.01h0M158.93 50.86l5.12 12.38h0l.02.03h0l.01.03h0l.02.03h0l.03.02h0l.02.03h0l.03.02h0l.03.02h0l.03.01h0l.03.01h0l.04.01h.17l.03-.02h0l12.38-5.13h0l.03-.01h0l.03-.02h0l.03-.02h0l.02-.02h0l.03-.03h0l.02-.02h0l.01-.03h0l.02-.03h0l.01-.04h0v-.03h.01v-.03h0v-.04h0v-.03h0v-.04h0v-.03h0l-.02-.03h0l-5.13-12.38h0l-.01-.03h0l-.02-.03h0l-.02-.03h0l-.02-.03h0l-.03-.02h0l-.02-.02h0l-.03-.02h0l-.04-.01h0l-.03-.01h0l-.03-.01h0-.04l-.03-.01h0-.03 0-.04 0l-.03.01h0l-.03.02h0L159.1 50.4h0l-.02.02h0l-.03.02h0l-.03.02h0l-.03.02h0l-.02.02h0l-.02.03h0l-.02.03h0l-.01.03h0l-.02.03h0v.04h0v.03h-.01v.04h0v.03h0v.03h0l.01.04h0l.01.03h0M69.53 46.4l12.38 5.12h0l.03.01h0l.03.01H82l.04.01h.07l.03-.01h0l.03-.02h0l.03-.01h0l.03-.02h0l.03-.02h0l.03-.02h0l.02-.03h0l.02-.02h0l.02-.03h0l.01-.03h0l5.13-12.39h0l.01-.03h0l.01-.03h0v-.03h0v-.04h0v-.03h0v-.04h0v-.03h0l-.02-.03h0l-.01-.03h0l-.02-.03h0l-.02-.03h0l-.02-.03h0l-.03-.02h0l-.03-.02h0l-.02-.02h0l-.04-.01h0l-12.38-5.13h0l-.03-.01h0l-.03-.01h0-.07 0-.03 0-.04 0-.03 0l-.03.02h0l-.03.01h0l-.03.02h0l-.03.02h0l-.03.02h0l-.02.03h0l-.02.03h0l-.02.03h0l-.01.03h0l-5.13 12.38h0l-.01.03h0l-.01.03h0v.04h0v.03h0v.03h0v.04h0v.03h0l.02.03h0l.01.04h0l.02.02h0l.02.03h0l.02.03h0l.03.02h0l.02.02h0l.03.02h0l.03.01h0M174.61 38.95l5.13 12.38h0l.01.03h0l.02.03h0l.02.03h0l.02.02h0l.03.03h0l.03.02h0l.03.02h0l.03.01h0l.03.01h0l.03.01h.17l.04-.02h0l12.38-5.13h.03v-.01l.03-.02h0l.02-.02h0l.03-.02h0l.02-.02h0l.02-.03h0l.02-.03h0l.02-.03h0v-.04l.02-.03h0v-.03h0v-.04h0v-.03h0V46l-.01-.03h0l-.01-.03h0l-5.13-12.38h0l-.01-.03h0l-.02-.03h0l-.02-.03h0l-.03-.02h0l-.02-.03h0l-.03-.02h0l-.03-.02h0l-.03-.01h0l-.03-.01h0l-.03-.01h0-.04 0-.03 0-.04 0-.03 0-.03 0l-.04.02h0L174.8 38.5h0l-.03.01h0l-.03.02h0l-.02.02h0l-.03.02h0l-.02.03h0l-.02.02h0l-.02.03h0l-.02.03h0v.04h-.01v.03h0l-.01.03h0v.04h0v.03h0v.04h0l.01.03h0l.01.03h0M134.42 41.48l5.13 12.38h0l.01.03h0l.02.03h0l.02.02h0l.02.03h0l.03.02h0l.02.02h0l.03.02h0l.03.02h.04l.03.02h.14l.03-.01h0l.03-.01h0l12.38-5.13h0l.03-.01h0l.03-.02h0l.03-.02h0l.03-.03h0l.02-.02h0l.02-.03h0l.02-.03h0l.01-.03h0l.01-.03h0l.01-.03h0v-.04h0l.01-.03h0v-.04h0v-.03h0l-.01-.03h0l-.02-.04h0l-5.12-12.38h0l-.02-.03h0l-.02-.03h0l-.02-.02h0l-.02-.03h0l-.02-.02h0l-.03-.02h0l-.03-.02h0l-.03-.02h0-.03v-.01h-.04 0l-.03-.01h0-.07 0-.03 0l-.04.01h0l-.03.01h0l-12.38 5.13h0l-.03.01h0l-.03.02h0l-.03.02h0l-.02.02h0l-.03.03h0l-.02.03h0l-.01.03h0l-.02.03h0l-.01.03h0l-.01.03h0v.04h0v.03h0v.04h0v.03h0v.03h0l.02.04h0M109.72 48.92l12.38 5.13h.03l.03.01h0l.04.01H122.3l.03-.01h0l.03-.01h0l.04-.02h0l.03-.02h0l.02-.02h0l.03-.02h0l.02-.02h0l.02-.03h0l.02-.03h0l.02-.03h0l5.12-12.38h0l.02-.03h0v-.04h0v-.03h0l.01-.04h0v-.03h0v-.03h0l-.01-.04h0l-.01-.03h0l-.02-.03h0l-.02-.03h0l-.02-.03h0l-.02-.02h0l-.03-.03h0l-.02-.02h0l-.03-.02h0l-.03-.01h0l-12.38-5.13h0l-.03-.01h-.04 0l-.03-.01h0-.04 0-.03 0-.03 0-.04v.01l-.03.01h0l-.03.01h0l-.03.02h0l-.03.02h0l-.02.03h0l-.03.02h0l-.02.03h0l-.02.03h0l-.01.03h0l-5.13 12.38h0l-.01.03h0v.03h-.01v.04h0v.03h0v.04h0v.03h0v.03h0l.02.04h0l.01.03h0l.02.03h0l.02.02h0l.02.03h0l.03.02h0l.03.02h0l.03.02h0l.03.02h0M213.56 33.43l5.13 12.38h0l.01.02h0l.02.03h0l.02.03h0l.02.03h0l.03.02h0l.03.02h0l.03.02h0l.03.01h0l.03.02h.03l.04.01h.1l.03-.01h0l.03-.01h0l12.39-5.13h0l.02-.02h0l.03-.01h0l.03-.02h0l.03-.03h0l.02-.02h0l.02-.03h0l.02-.03h0l.01-.03h0l.02-.03h0v-.04h0l.01-.03h0v-.03h0v-.04h0v-.03h0l-.01-.04h0l-.01-.03h0l-5.13-12.38h0l-.02-.03h0l-.01-.03h0l-.02-.03h0l-.03-.02h0l-.02-.02h0l-.03-.03h0l-.03-.01h0l-.03-.02h0l-.03-.01h0-.04l-.03-.01h0-.03 0-.04 0-.03 0-.03l-.01.01-.03.01h0l-12.38 5.13h0l-.03.01h0l-.03.02h0l-.03.02h0l-.02.02h0l-.02.03h0l-.02.03h0l-.02.03h0l-.02.03h0v.03h-.01v.03h0l-.01.04h0v.03h0v.03h0v.04h0v.03h.01l.01.03h0M30.58 40.87L42.95 46H43l.03.02h.13l.04-.01h0l.03-.01h0l.03-.02h0l.03-.01h0l.03-.02h0l.02-.03h0l.03-.02h0l.02-.03h0l.02-.03h0l.01-.03h0l5.13-12.38h0l.01-.03h0v-.04h.01v-.03h0v-.03h0v-.04h0v-.03h0v-.04h0l-.02-.03h0l-.01-.03h0l-.02-.03h0l-.02-.03h0l-.02-.02h0l-.03-.03h0L48.4 33h0l-.03-.01h0l-.03-.02h0l-12.38-5.13h0-.03v-.01h-.03 0l-.04-.01h0-.03 0-.07 0l-.03.01h0l-.03.01h0l-.04.02h0l-.03.01h0l-.02.02h0l-.03.03h0l-.02.02h0l-.02.03h0l-.02.03h0l-.02.03h0L30.4 40.41h0l-.02.03h0v.07h0l-.01.03h0v.04h0v.03h0l.01.03h0l.01.04h0l.02.03h0l.02.03h0l.02.03h0l.02.02h0l.03.02h0l.02.03h0l.03.01h0l.03.02h0M193.27 34.2l5.12 12.38h0l.02.03h0l.01.03h0l.02.03h0l.03.03h0l.02.02h0l.03.02h0l.03.02h0l.03.01h0l.03.01h0l.04.01h.03l.03.01h.07l.04-.01h0l.03-.02h0l12.38-5.12h0l.03-.02h0l.03-.02h0l.03-.02h0l.02-.02h0l.03-.02h0l.02-.03h0l.01-.03h0l.02-.03h0l.01-.03h0v-.04h.01v-.03h0v-.04h0v-.03h0v-.03h0v-.04h0l-.02-.03h0l-5.13-12.38h0l-.01-.03h0l-.02-.03h0l-.02-.03h0l-.02-.02h0l-.03-.03h0l-.03-.02h0l-.02-.02h0l-.04-.01h0l-.03-.01h0l-.03-.01h0-.07 0-.03 0-.04 0-.03 0l-.03.02h0l-12.39 5.13h0l-.02.01h0l-.03.02h0l-.03.02h0l-.03.02h0l-.02.03h0l-.02.02h0l-.02.03h0l-.01.03h0l-.02.04h0V34h0v.03h-.01v.04h0v.03h0v.04h0l.01.03h0l.01.03h0M50.87 41.65l12.38 5.12h0l.03.02h.07v.01h.1l.04-.01h0l.03-.01h0l.03-.02h0l.03-.02h0l.03-.02h0l.02-.02h0l.03-.03h0l.02-.02h0l.01-.03h0l.02-.03h0l5.13-12.38h0v-.03h.01v-.04h0l.01-.03h0v-.04h0v-.03h0V34h0v-.04h-.01l-.01-.03h0l-.01-.03h0l-.02-.03h0l-.02-.03h0l-.03-.02h0l-.02-.03h0l-.03-.02h0l-.03-.02h0l-.03-.01h0l-12.38-5.13h0l-.03-.01h0-.03v-.01h-.04 0-.03 0-.04 0-.03 0-.03 0l-.04.02h0l-.03.01h0l-.03.02h0l-.02.02h0l-.03.02h0l-.02.03h0l-.02.03h0l-.02.03h0l-.02.03h0l-5.13 12.38h0v.03h0l-.01.03h0l-.01.04h0v.03h0v.04h0v.03h0l.01.03h0l.01.03h0l.02.04h0l.02.03h0l.02.02h0l.02.03h0l.02.02h0l.03.02h0l.03.02h0l.03.02h0M231.74 27.52l5.12 12.38h0l.02.03h0l.01.03h0l.02.03h0l.03.02h0l.02.03h0l.03.02h0l.03.02h0l.03.01h0l.03.01h0l.04.01h.17l.03-.02h0l12.38-5.13h.03v-.01l.03-.02h0l.03-.02h0l.02-.02h0l.03-.02h0l.02-.03h0l.01-.03h0l.02-.03h0l.01-.03h0v-.04h.01v-.03h0v-.04h0v-.03h0v-.03h0v-.04h-.01l-.01-.03h0l-5.13-12.38h0l-.01-.03h0l-.02-.03h0l-.02-.03h0l-.02-.02h0l-.03-.03h0l-.03-.02h0l-.02-.02h0l-.04-.01h0l-.03-.01h0l-.03-.01h0-.07 0-.03 0-.04 0-.03 0l-.03.02h0l-12.39 5.13h0l-.02.01h0l-.03.02h0l-.03.02h0l-.03.02h0l-.02.03h0l-.02.02h0l-.02.03h0l-.01.03h0l-.02.04h0v.03h0v.03h-.01v.04h0v.03h0v.04h0l.01.03h0l.01.03h0M12.4 34.96l12.38 5.13h0l.03.01h0l.04.01h.17l.03-.02h0l.03-.01h0l.03-.02h0l.03-.02h0l.02-.02h0l.03-.03h0l.02-.03h0l.01-.03h0l.02-.03h0l5.13-12.38h0v-.03h.01v-.03h0l.01-.04h0v-.03h0v-.03h0v-.04h0v-.03h-.01l-.01-.03h0l-.01-.03h0l-.02-.03h0l-.02-.03h0l-.03-.03h0l-.02-.02h0l-.03-.02h0l-.03-.02h0l-.03-.01h0L17.8 21.93h0l-.03-.01h0l-.03-.01h0-.04 0l-.03-.01h0-.04 0-.03 0l-.03.01h0l-.04.02h0l-.03.01h0l-.03.02h0l-.02.02h0l-.03.02h0l-.02.03h0l-.02.02h0l-.02.03h0l-.02.03h0l-5.13 12.39h0v.03h0l-.01.03h0l-.01.03h0v.04h0v.03h0v.04h0l.01.03h0l.01.03h0l.02.03h0l.02.03h0l.02.03h0l.02.03h0l.02.02h0l.03.02h0l.03.02h0l.03.01h0M92.5 40.7l12.38 5.13h0l.03.01h0l.04.01h.17l.03-.02h0l.03-.01h0l.03-.02h0l.03-.02h0l.02-.02h0l.03-.03h0l.02-.02h0l.01-.03h0l.02-.03h0l5.13-12.39h0v-.03h.01v-.03h0l.01-.03h0v-.04h0v-.03h0v-.04h0l-.01-.03h0l-.01-.03h0l-.02-.03h0l-.01-.03h0l-.02-.03h0l-.03-.03h0l-.02-.02h0l-.03-.02h0l-.03-.02h0l-.03-.01h0L97.9 27.68h0l-.03-.01h0l-.03-.01h-.04 0-.03 0-.04 0-.03 0-.04l-.03.02h0l-.03.01h0l-.03.02h0l-.03.02h0l-.02.02h0l-.02.03h0l-.03.03h0l-.01.02h0l-.02.04h0l-5.13 12.38h0v.03h0l-.02.03h0v.07h0v.03h0v.04h0l.01.03h0l.01.03h0l.02.03h0l.01.03h0l.02.03h0l.03.03h0l.02.02h0l.03.02h0l.03.02h0l.03.01h0M151.64 33.26l5.12 12.38h0l.02.03h0l.02.03h0l.02.03h0l.02.02h0l.02.03h0l.03.02h0l.03.02h0l.03.01h0l.03.01h0l.04.01h.17l.03-.02h0l12.38-5.13h0l.03-.01h0l.03-.02h0l.03-.02h0l.02-.02h0l.03-.03h0l.02-.02h0l.01-.03h0l.02-.03h0l.01-.04h0l.01-.03h0v-.03h0v-.04h0v-.03h0v-.04h0v-.03h0l-.02-.03h0l-5.13-12.38h0l-.01-.03h0l-.02-.03h0l-.02-.03h0l-.02-.03h0l-.03-.02h0l-.02-.02h0l-.03-.02h0l-.03-.01h0l-.04-.01h0l-.03-.01h0-.03 0l-.04-.01h0-.03 0-.04 0l-.03.01h0l-.03.02h0l-12.38 5.12h0l-.03.02h0l-.03.02h0l-.03.02h0l-.03.02h0l-.02.02h0l-.02.03h0l-.02.03h0l-.01.03h0l-.01.03h0l-.01.04h0v.03h0l-.01.04h0v.03h0v.03h0l.01.04h0l.02.03h0" stroke-width=".26458"/>
  </g>
  <text x="191.59" y="156.32" fill="#0f0" font-family="Spartan" font-size="10.58" letter-spacing="0" stroke-width=".26" word-spacing="0" style="line-height:1.25" transform="translate(27.54 -71.42)">
    <tspan x="191.59" y="156.32">mk2</tspan>
  </text>
  <g fill="none" stroke="red">
    <path d="M1 51.98l-.04-.02-.03-.01-.04-.02-.03-.02-.03-.02-.03-.02-.03-.02-.03-.02-.03-.03-.03-.02-.03-.02-.02-.03-.03-.02-.03-.03-.02-.02-.03-.03-.02-.03-.03-.03-.02-.03-.02-.03-.02-.03-.02-.03-.02-.03-.02-.03-.02-.03-.02-.03-.02-.03-.01-.04-.02-.03-.01-.04-.01-.03-.02-.03v-.04l-.02-.03-.01-.04v-.04l-.02-.03v-.04l-.01-.03v-.04l-.01-.04v-.07l-.01-.04v-.25l.01-.04.01-.04v-.03l.01-.04.01-.03.01-.04.01-.03.01-.04.02-.03v-.04l.02-.03.02-.04.01-.03 23.37-49 .02-.03.02-.03.02-.04.01-.03.02-.03.02-.03.02-.03.03-.03.02-.03.02-.03.03-.03.02-.02.03-.03.02-.03.03-.02L24 .5l.03-.02.03-.03.03-.02.03-.02.03-.02.03-.02.03-.02.03-.02.03-.02.04-.02.03-.01.03-.02.03-.02.04-.01.03-.01.04-.02h.03l.04-.02h.03l.04-.02h.03l.04-.01.04-.01h.03l.04-.01h.07l.04-.01H25.16l.04.01h.03l.04.01h.04l.03.02h.04l.03.01.04.01.03.01.04.02.34.12 1.86.62 1.88.58 1.9.53 1.9.48 1.9.44 1.93.39 1.94.34 1.94.3 1.94.24 1.96.2 1.96.15 1.96.1 1.96.06h1.96l1.97-.04 1.96-.09 1.96-.14 1.95-.18 1.95-.24 1.51-.21.04-.01h.11l.04-.01h.19l.04.01h.04l.03.01.04.01.04.01.03.01.04.01.04.01.03.01.1.04 1.9.63 1.93.6 1.93.53 1.94.49 1.96.44 1.97.4 1.97.34 1.99.29 2 .24.83.1h.07l.04.01h.03l.04.02h.04l.03.01.04.02h.03l.04.02.03.01.04.02.03.01.2.1h.02l12.55 5.99 1.8.83 1.82.79 1.83.74 1.85.69 1.87.65 1.89.6 1.9.55 1.9.51 1.93.46 1.93.41 1.95.37 1.95.32 1.96.26 1.97.22 1.97.17 1.97.13 1.98.07 1.98.02 1.97-.02 1.98-.07 1.97-.13 1.97-.17 1.97-.22 1.96-.26 1.95-.32 1.95-.37 1.93-.4 1.92-.47 1.92-.5 1.9-.56 1.88-.6 1.87-.65 1.85-.7 1.83-.73 1.82-.79 1.8-.83 12.55-5.99h.02l.22-.1.03-.02.04-.02h.03l.03-.02.04-.01.03-.01.04-.01.04-.01.03-.01h.04l.03-.01.04-.01h.04l.26-.03h.02l.92-.1 1.95-.25 1.94-.3 1.93-.33 1.93-.4 1.91-.43 1.9-.48 1.9-.53 1.87-.58 1.87-.62.1-.04h.04l.03-.02.04-.01h.04l.03-.02h.04l.04-.01h.03l.04-.01h.11l.04-.01h.15l.04.01h.04l1.54.23 1.98.23 1.98.2 1.98.13 2 .09 1.98.04 2-.01 1.98-.07 1.99-.1 1.98-.16 1.98-.21 1.97-.26 1.97-.3 1.96-.36 1.95-.4 1.94-.46 1.92-.5 1.92-.55 1.9-.6 1.74-.59.03-.01.04-.01.04-.01.03-.01h.04l.03-.02h.08l.03-.01h.08l.03-.01h.23l.03.01.04.01h.04l.03.01.04.01.03.01.04.01.03.01.04.01.03.02.04.01.03.01.04.02.03.02.03.01.04.02.03.02.03.02.03.02.03.02.03.02.03.02.03.02.03.03.03.02.02.03.03.02.03.03.02.03.03.02.02.03.02.03.03.03.02.03.02.03.02.03.02.03.02.04.01.03.02.03.02.03 23.37 49 .01.03.02.04.01.03.02.04v.03l.02.04v.03l.02.04v.03l.01.04.01.04v.03l.01.04v.03l.01.04v.3l-.01.03v.04l-.01.03-.01.04V51l-.02.03v.04l-.02.03-.01.04-.01.03-.02.04-.01.03-.02.03-.01.04-.02.03-.02.03-.02.03-.02.04-.02.03-.02.03-.02.03-.02.03-.02.02-.03.03-.02.03-.03.03-.02.02-.03.03-.02.02-.03.03-.03.02-.03.03-.03.02-.03.02-.03.02-.03.02-.03.02-.03.02-.03.02-.04.01-.03.02-15.39 7.34h-.01l-.36.17-.03.02-.04.01-.03.01-.03.02h-.04l-.25.09-1.87.62-1.85.67-1.82.71-1.82.76-1.79.8-1.77.85-1.75.89-1.73.93-1.7.97-1.69 1.02-1.65 1.05-1.63 1.1-1.6 1.13-1.57 1.18-1.55 1.21-1.51 1.25-1.49 1.29-1.45 1.32-1.41 1.36-1.39 1.4-1.35 1.42-1.31 1.46-1.28 1.49-1.24 1.52-1.2 1.55-1.17 1.6-.3.4-.02.04-.02.03-.03.02-.02.03-.03.03-.02.03-.03.02-.02.03-.03.02-.03.03-.03.02-.03.02-.02.02-.03.03-.04.02-.03.02-.03.02-.03.01-.03.02-.04.02-.09.04-.02.01-9.09 4.34-1.69.83-1.66.87-1.64.9-1.62.94-1.6.98-1.57 1.02-1.55 1.06-1.53 1.09-1.5 1.13-1.67 1.28-1.48 1.16-1.44 1.2-1.42 1.23-1.38 1.26-1.36 1.29-1.33 1.32-1.3 1.36-1.25 1.39-1.24 1.42-6.17 7.26-.02.03-.03.02-.02.03-.03.03-.02.02-.03.03-.03.02-.03.02-.03.03-.03.02-.03.02-.03.02-.03.02-.03.02-.03.02-.03.01-.04.02-.03.01-.03.02-.04.01-.03.02h-.04l-.03.02-.04.01-.03.01h-.04l-.04.02h-.03l-.04.01h-.03l-.04.01h-.37l-.03-.01h-.04l-.04-.02h-.03l-.04-.01-.03-.01-.04-.01-.03-.01-1.8-.63-1.89-.6-1.9-.57-1.93-.51-1.93-.47-1.95-.41-1.95-.37-1.96-.32-1.97-.27-1.98-.23-1.98-.17-1.99-.12-1.99-.08-1.98-.02-2 .02-1.98.08-1.99.12-1.98.17-1.97.22-1.97.28-1.97.32-1.95.36-1.95.42-1.93.47-1.92.51-1.91.56-1.9.6-1.78.63-.04.02h-.03l-.04.02h-.04l-.03.01-.04.01h-.03l-.04.01h-.04l-.03.01H103.17l-.04-.01h-.04l-.03-.01-.04-.01-.03-.01-.04-.01-.04-.01-.03-.01-.03-.01-.04-.02-.03-.01-.04-.02-.03-.01-.03-.02-.04-.02-.03-.01-.03-.02-.03-.02-.03-.02-.03-.02-.03-.03-.03-.02-.03-.02-.03-.03-.02-.02-.03-.03-.03-.02-.02-.03-.03-.02-.02-.03-6.17-7.26-1.23-1.43-1.27-1.38-1.3-1.36-1.32-1.32-1.35-1.3-1.4-1.26-1.4-1.22-1.45-1.2-1.48-1.16-1.66-1.28-1.5-1.14-1.53-1.09L77.6 100l-1.58-1.02-1.6-.98-1.62-.94-1.64-.9-1.66-.87-1.69-.83-9.1-4.34h0l-.1-.05-.04-.02-.03-.02-.03-.02-.03-.01-.03-.02-.03-.03-.03-.02-.03-.02-.03-.02-.03-.02-.03-.03-.03-.02-.02-.03-.03-.03-.02-.02-.03-.03-.02-.03-.02-.03-.03-.02-.02-.03-.3-.42-1.17-1.59-1.2-1.55-1.24-1.52-1.28-1.5-1.31-1.45-1.35-1.43-1.39-1.4-1.41-1.35-1.45-1.32-1.49-1.29-1.5-1.25-1.55-1.21-1.58-1.18-1.6-1.13-1.63-1.1-1.65-1.06-1.68-1.01-1.7-.97-1.74-.94-1.75-.88-1.77-.85-1.8-.8-1.8-.76-1.83-.71-1.85-.67-1.87-.62-.25-.08-.03-.01-.04-.02-.03-.01-.04-.01-.03-.02-.35-.16-.02-.01L.99 51.98" stroke-width=".26458"/>
    <path d="M148.45 111.86l10.21 8.67h0l.03.02h0l.03.02h0l.03.02h.03v.01l.03.01h.17l.04-.02h0l.03-.01h0l.03-.02h0l.03-.02h0l.02-.02h0l.03-.02h0l8.67-10.22h0l.02-.03h0l.02-.03h0l.01-.03h0l.02-.03h0v-.03h0l.01-.04h0v-.03h0v-.03h0v-.04h0v-.03h-.01l-.01-.03h0l-.01-.04h0l-.02-.03h0l-.02-.02h0l-.02-.03h0l-.03-.02h0l-10.21-8.68h0l-.03-.02h0l-.03-.02h0l-.03-.01h0l-.03-.02h0-.03 0l-.04-.01h0-.03 0-.07 0-.03 0l-.04.02h0l-.03.01h0l-.03.02h0l-.03.02h0l-.02.02h0l-.03.03h0l-8.67 10.21h0l-.02.03h0l-.02.03h0l-.01.03h0l-.02.03h0v.04h0l-.01.03h0v.03h0v.04h0v.03h0v.03l.01.01.01.03h0l.01.03h0l.02.03h0l.02.03h0l.02.02h0l.03.03h0M94.28 110.27l8.68 10.22h0l.02.02h0l.02.02h0l.03.02h0l.03.02h0l.03.01h0l.03.02h.04l.03.01h.1l.04-.02h.03v-.01l.03-.01h0l.03-.02h0l.03-.02h0l10.21-8.68h0l.03-.02h0l.02-.03h0l.02-.02h0l.02-.03h0l.01-.04h0l.01-.03h0l.01-.03h0v-.04h0v-.03h0v-.03h0v-.04h0l-.01-.03h0l-.01-.03h0l-.02-.03h0l-.01-.03h0l-.03-.03h0l-8.67-10.22h0l-.02-.02h0l-.03-.02h0l-.03-.02h0l-.02-.02h0l-.04-.02h0-.03v-.01h-.03 0l-.04-.01h-.03 0-.03 0-.04 0l-.03.01h0l-.03.02h0l-.03.01h0l-.03.02h0l-.03.02h0l-10.22 8.68h0l-.02.02h0l-.02.03h0l-.02.02h0l-.02.03h0l-.02.03h0v.04h0l-.01.03h0l-.01.03h0v.04h0v.03h0v.04h0l.01.03h0l.02.03h0l.01.03h0l.02.03h0l.02.03h0M163.61 95.35l8.18 10.62h0l.02.02h0l.02.03h0l.03.02h0l.03.02h0l.03.01h0l.03.02h.03l.04.01h.13l.03-.01h0l.04-.02h0l.03-.01h0l.02-.02h0l10.62-8.18h0l.03-.02h0l.02-.03h0l.02-.02h0l.02-.03h0l.02-.03h0l.01-.03h0l.01-.04h0v-.03h0l.01-.03h0v-.04h0v-.03h0l-.01-.04h0l-.01-.03h0l-.01-.03h0l-.02-.03h0l-.02-.03h0l-8.17-10.62h0l-.02-.02h0l-.03-.03h0l-.03-.02h0l-.02-.02h0l-.04-.02h0-.03v-.01h-.03 0l-.03-.01h0-.04 0-.03 0-.04 0-.03 0l-.03.01h0l-.03.02h0l-.03.01h0l-.03.02h0l-10.62 8.18h0l-.03.02h0l-.02.02h0l-.02.03h0l-.02.03h0l-.02.03h0l-.01.03h0l-.01.04h0v.03h0l-.01.03h0v.04h0v.03h0l.01.04h0l.01.03h0l.02.03h0l.01.03h0l.02.03h0M79.22 97.86l10.62 8.18h0l.02.01h0l.03.02h0l.04.02h.03l.03.01h.17v-.01l.03-.01h0l.03-.02h0l.03-.02h0l.03-.02h0l.03-.02h0l.02-.03h0l8.17-10.62h0l.02-.03h0l.02-.03h0l.01-.03h0l.01-.03h0v-.03h.01v-.04h0v-.03h0v-.04h0v-.03h0l-.01-.03h0l-.02-.04h0l-.01-.03h0l-.02-.03h0l-.02-.02h0l-.02-.03h0l-.03-.02h0l-10.62-8.17h0l-.03-.02h0l-.03-.02h0l-.03-.01h0l-.03-.01h0l-.03-.01h0-.04 0-.03 0-.04 0-.03 0l-.03.01h0l-.04.01h0l-.03.02h0l-.03.02h0l-.02.02h0l-.03.02h0l-.02.03h0l-8.17 10.62h0l-.02.02h0l-.02.03h0l-.01.04h0l-.01.03h0l-.01.03h0v.04h0v.03h0v.07h0l.01.03h0l.01.03h0l.02.03h0l.02.03h0l.02.03h0l.02.03h0l.03.02h0M181.89 82.4l5.77 12.1h0l.01.02h0l.02.03h0l.02.03h0l.03.02h0l.03.02h0l.02.02h0l.03.02h0l.04.01h0l.03.01h.03l.04.01h.1l.03-.02h0l.03-.01h0l12.1-5.77h0l.03-.01h0l.03-.02h0l.02-.02h0l.03-.03h0l.02-.03h0l.02-.02h0l.01-.03h0l.02-.04h0v-.03h0l.01-.03h0v-.04h0v-.03h0v-.04h0v-.03h0l-.01-.03h0l-.01-.03h0l-5.77-12.1h0l-.02-.03h0l-.02-.03h0l-.02-.02h0l-.02-.03h0l-.03-.02h0l-.03-.02h0l-.03-.01h0l-.03-.02h0-.03 0l-.04-.01h0-.03 0-.04 0-.03 0-.03 0l-.04.01h0l-.03.01h0l-12.1 5.77h0l-.02.02h0l-.03.02h0l-.03.02h0l-.02.02h0l-.02.03h0l-.02.03h0l-.02.03h0l-.01.03h0l-.01.03h0l-.01.04h0v.03h0v.04h0v.03h0v.03h0l.02.04h0v.03h.01M61.9 88.89l12.09 5.77h.03v.01h.03l.03.02h.11l.03-.01h.03v-.01l.03-.01h0l.03-.02h0l.03-.02h0l.03-.02h0l.02-.02h0l.03-.03h0l.02-.03h0l.01-.03h0l5.77-12.1h0l.01-.02h0l.01-.04h0l.01-.03h0v-.04h0v-.03h0v-.03h0v-.04h0l-.01-.03h0l-.02-.03h0l-.01-.03h0l-.02-.03h0l-.02-.03h0l-.03-.02h0l-.02-.02h0l-.03-.02h0l-.03-.02h0l-12.1-5.77h0l-.03-.01h0l-.03-.01h0l-.03-.01h0-.04 0-.03 0-.04 0-.03 0l-.03.01h0l-.03.02h0l-.03.01h0l-.03.02h0l-.03.02h0l-.02.03h0l-.03.02h0l-.02.03h0l-.01.03h0l-5.77 12.1h0l-.02.03h0v.03h0l-.01.03h0v.04h0v.03h0v.04h0v.03h0l.01.03h0l.02.04h0l.01.03h0l.02.02h0l.02.03h0l.03.03h0l.02.02h0l.03.02h0l.03.01h0M150.9 77.18l5.78 12.1h0l.01.02h0l.02.03h0l.02.03h0l.03.02h0l.02.02h0l.03.02h0l.03.02h0l.03.01h0l.04.01h.03l.03.01H157.08v-.01h.03v-.01l.03-.01h0l12.1-5.77h0l.03-.02h0l.02-.02h0l.03-.02h0l.03-.02h0l.02-.03h0l.02-.03h0l.01-.03h0l.02-.03h0v-.03h0l.01-.04h0v-.03h0v-.03h0v-.04h0v-.03h0l-.01-.03h0l-.02-.04h0l-5.77-12.1h0l-.01-.02h0l-.02-.03h0l-.02-.03h0l-.03-.02h0l-.02-.02h0l-.03-.02h0l-.03-.02h0l-.03-.01h0l-.04-.01h0-.03 0l-.03-.01h0-.04 0-.03 0-.04v.01h-.03v.01l-.03.01h0l-12.1 5.77h0l-.02.02h0l-.03.02h0l-.03.02h0l-.02.02h0l-.03.03h0l-.02.03h0l-.01.03h0l-.02.03h0v.03h0l-.01.03h0v.04h0v.03h0v.04h0v.03h0l.01.03h0l.02.04h0M92.87 83.67l12.1 5.77h.03v.01h.03v.01h.04l.03.01h.1v-.01h.03v-.01l.04-.01h0l.03-.02h0l.03-.02h0l.02-.02h0l.03-.02h0l.02-.03h0l.02-.03h0l.01-.03h0l5.77-12.1h0l.02-.02h0v-.03h0l.01-.04h0v-.03h0V77h0v-.03h0v-.04l-.01-.03h0l-.01-.03h0l-.02-.03h0l-.02-.03h0l-.02-.03h0l-.02-.02h0l-.03-.02h0l-.03-.02h0l-.03-.02h0l-12.1-5.77h0l-.02-.01h0l-.04-.01h0-.03 0l-.04-.01h0-.03 0-.03 0-.04 0l-.03.02h0l-.03.01h0l-.03.02h0l-.03.01h0l-.03.03h0l-.02.02h0l-.02.03h0l-.02.02h0l-.02.03h0L92.7 83.2h0l-.01.03h0l-.01.03h0l-.01.04h0v.03h0v.04h0v.03h0v.03h0l.01.04h0l.02.03h0l.01.03h0l.02.03h0l.02.02h0l.03.03h0l.02.02h0l.03.02h0l.03.02h0M76.37 74.02l12.1 5.77h0l.02.02h.03l.04.01h.13l.04-.01h0l.03-.02h0l.03-.01h0l.03-.02h0l.02-.02h0l.03-.03h0l.02-.02h0l.02-.03h0l.02-.03h0l5.77-12.1h0l.01-.03h0l.01-.03h0v-.03h0l.01-.04h0v-.03h0v-.07h0l-.02-.03h0l-.01-.03h0l-.02-.03h0l-.02-.03h0l-.02-.03h0l-.02-.02h0l-.03-.03h0l-.03-.02h0l-.03-.01h0l-12.1-5.77h0l-.02-.01h0l-.03-.01h0l-.04-.01h0-.03 0-.04 0-.03 0-.03 0l-.04.01h0l-.03.02h0l-.03.01h0l-.03.02h0l-.02.02h0l-.03.03h0l-.02.02h0l-.02.03h0l-.02.03h0l-5.77 12.1h0l-.01.03h0l-.01.03h0v.03h0l-.01.04h0v.03h0v.04h0v.03h0l.02.03h0l.01.03h0l.02.03h0l.01.03h0l.03.03h0l.02.02h0l.03.03h0l.03.02h0l.03.01h0M167.41 67.53l5.77 12.1h0l.02.02h0l.02.03h0l.02.03h0l.02.02h0l.03.03h0l.03.01h0l.03.02h0l.03.01h0l.03.01h0l.04.01h.13l.04-.02h.03v-.01l12.1-5.77h0l.02-.01h0l.03-.02h0l.03-.02h0l.02-.03h0l.02-.03h0l.02-.02h0l.02-.03h0l.01-.04h0l.01-.03h0v-.03h.01v-.04h0v-.03h0v-.03h0v-.04h0l-.02-.03h0l-.01-.03h0l-5.77-12.1h0l-.01-.03h0l-.02-.03h0l-.03-.02h0l-.02-.03h0l-.03-.02h0l-.02-.02h0l-.03-.01h0l-.04-.02h0-.03 0l-.03-.01h0-.04 0-.03 0-.04 0-.03 0l-.03.01h0l-.03.01h0l-12.1 5.77h0l-.03.02h0l-.03.02h0l-.02.02h0l-.03.02h0l-.02.03h0l-.02.03h0l-.02.03h0v.03h-.01v.03h-.01v.04h0v.03h0v.04h0v.03h0v.03h0l.01.04h0l.01.03h0M205.9 15.47l5.77 12.1h0l.01.02h0l.02.03h0l.03.03h0l.02.02h0l.03.03h0l.02.02h0l.03.01h0l.04.01h0l.03.01h0l.03.01h.14l.03-.01h0l.03-.02h0l12.1-5.77h0l.03-.01h0l.03-.02h0l.02-.02h0l.03-.03h0l.02-.02h0l.02-.03h0l.02-.03h0v-.03h.01v-.04h0l.02-.03h0v-.07h0v-.03h0l-.01-.04h0l-.01-.03h0l-.01-.03h0l-5.77-12.1h0l-.02-.03h0l-.02-.03h0l-.02-.02h0l-.02-.03h0l-.03-.02h0l-.03-.02h0l-.03-.01h0l-.03-.02h0-.03 0l-.04-.01h0-.03 0-.04 0-.03 0-.03 0l-.04.01h0l-.03.02h0L206.06 15h0l-.02.01h0l-.03.02h0l-.03.02h0l-.02.03h0l-.02.02h0l-.02.03h0l-.02.03h0l-.01.03h0l-.01.04h0l-.01.03h0v.03h0v.04h0v.03h0v.04h0l.02.03h0v.03h.01M164.76 17.72l5.77 12.1h0l.01.02h0l.02.03h0l.03.03h0l.02.02h0l.03.03h0l.02.01h0l.03.02h0l.04.01h0l.03.01h0l.03.01h.14l.03-.02h.03v-.01l12.1-5.77h0l.03-.01h0l.03-.02h0l.02-.02h0l.03-.03h0l.02-.02h0l.02-.03h0l.02-.03h0V24h.01v-.03h.01v-.03h0v-.04h0v-.03h0v-.03h0v-.04h0l-.01-.03h0l-.01-.03h0l-5.77-12.1h0l-.02-.03h0l-.02-.03h0l-.02-.02h0l-.02-.03h0l-.03-.02h0l-.03-.02h0l-.03-.01h0l-.03-.02h0-.03 0l-.04-.01h0-.03 0-.04 0-.03 0-.03 0l-.04.01h0l-.03.01h0l-12.1 5.77h0l-.02.02h0l-.03.02h0l-.03.02h0l-.02.02h0l-.02.03h0l-.02.03h0l-.02.03h0l-.01.03h0l-.01.03h0v.04h-.01v.03h0v.04h0v.03h0v.03h0l.02.04h0l.01.03h0M79.02 24.21l12.1 5.77h0l.02.02h.04l.03.01h.14l.03-.01h0l.03-.01h0l.03-.02h0l.03-.02h0l.03-.02h0l.02-.03h0l.02-.02h0l.02-.03h0l.02-.03h0l5.77-12.1h0l.01-.03h0l.01-.03h0l.01-.03h0v-.04h0v-.03h0v-.07h0l-.01-.03h0l-.02-.03h0l-.01-.03h0l-.02-.03h0l-.02-.03h0l-.03-.02h0l-.02-.03h0l-.03-.02h0l-.03-.01h0l-12.1-5.77h0l-.03-.01h0l-.03-.01h0l-.03-.01h0-.04 0-.03 0-.04 0-.03 0l-.03.01h0l-.04.02h0l-.03.01h0l-.02.02h0l-.03.02h0l-.03.03h0l-.02.02h0l-.02.03h0l-.01.03h0l-5.77 12.1h0l-.02.03h0v.03h0l-.01.03h0v.04h0v.03h0v.04h0v.03h0l.01.03h0l.01.03h0l.02.03h0l.02.03h0l.02.03h0l.02.02h0l.03.03h0l.03.02h0l.03.01h0M183.85 13.5l5.77 12.09h0l.01.03h0l.02.02h0l.02.03h0l.03.03h0l.03.02h0l.02.02h0l.03.01h0l.04.02h.03l.03.01h.14l.03-.01h0l.03-.02h0l12.1-5.77h0l.03-.01h0l.03-.02h0l.02-.02h0l.03-.03h0l.02-.02h0l.02-.03h0l.02-.03h0v-.03h.01v-.04h0l.02-.03h0v-.03h0v-.04h0v-.03h0l-.01-.04h0l-.01-.03h0l-.01-.03h0l-5.77-12.1h0l-.02-.03h0l-.02-.02h0l-.02-.03h0l-.02-.03h0l-.03-.02h0l-.03-.02h0l-.03-.01h0l-.03-.02h0-.03 0l-.04-.01h0-.03 0-.04 0-.03 0-.03 0l-.04.01h0l-.03.02h0l-12.1 5.77h0l-.02.01h0l-.03.02h0l-.03.02h0l-.02.03h0l-.02.02h0l-.02.03h0l-.02.03h0l-.01.03h0l-.01.04h0l-.01.03h0v.03h0v.04h0v.03h0v.04h0l.02.03h0v.03h.01M37.88 21.96l12.1 5.77h0l.03.01h0l.03.01h0l.03.01h.14l.03-.01h0l.03-.02h0l.03-.01h0l.03-.02h0l.03-.02h0l.02-.03h0l.03-.02h0l.01-.03h0l.02-.03h0l5.77-12.1h0l.01-.03h0l.01-.03h0l.01-.03h0v-.04h0v-.03h0v-.04h0v-.03h0l-.01-.03h0l-.02-.03h0l-.01-.04h0l-.02-.02h0l-.02-.03h0l-.03-.03h0l-.02-.02h0l-.03-.02h0l-.03-.01h0l-12.1-5.77h0l-.03-.02h0-.03 0l-.03-.01h0-.04 0-.03 0-.04 0-.03 0l-.03.01h0l-.03.01h0l-.04.02h0l-.02.02h0l-.03.02h0l-.03.02h0l-.02.03h0l-.02.03h0l-.01.03h0l-5.77 12.1h0l-.02.03h0v.03h0l-.01.03h0v.04h0v.03h0v.03h0v.04h0l.01.03h0l.01.03h0l.02.03h0l.02.03h0l.02.03h0l.02.02h0l.03.03h0l.03.01h0l.03.02h0M59.93 19.98l12.1 5.77h0l.03.01h0l.03.01h0l.03.01h.14l.03-.01h0l.03-.02h0l.03-.01h0l.03-.02h0l.03-.02h0l.02-.03h0l.03-.02h0l.01-.03h0l.02-.03h0l5.77-12.1h0l.01-.03h0l.01-.03h0l.01-.03h0v-.04h0v-.03h0v-.04h0v-.03h0l-.01-.03h0l-.02-.03h0l-.01-.03h0l-.02-.03h0l-.02-.03h0l-.03-.02h0l-.02-.03h0l-.03-.02h0l-.03-.01h0L66 7.26h0l-.03-.01h0l-.03-.02h0-.03 0-.04 0-.03 0-.04 0-.03 0l-.03.01h0l-.03.02h0l-.04.01h0l-.02.02h0l-.03.02h0l-.03.03h0l-.02.02h0l-.02.03h0l-.01.03h0l-5.77 12.1h0l-.02.03h0v.03h0l-.01.03h0v.04h0v.03h0v.04h0v.03h0l.01.03h0l.01.03h0l.02.03h0l.02.03h0l.02.03h0l.02.02h0l.03.03h0l.03.02h0l.03.01h0M19.65 15.93l12.1 5.77h.03v.01h.03v.01h.04l.03.01h.1v-.01h.03v-.01l.04-.01h0l.03-.02h0l.03-.02h0l.02-.02h0l.03-.02h0l.02-.03h0l.02-.03h0l.01-.03h0l5.77-12.1h0l.02-.02h0v-.04h0l.01-.03h0V9.3h0v-.04h0v-.03h0V9.2h0L38 9.17h0l-.01-.03h0l-.02-.03h0l-.02-.03h0l-.02-.03h0l-.02-.02h0L37.87 9h0l-.03-.02h0l-.03-.02h0L25.72 3.2h0l-.02-.01h0l-.04-.01h0-.03 0l-.03-.01h0-.04 0-.03 0-.04 0l-.03.02h0-.03v.01l-.03.02h0l-.03.01h0l-.03.03h0l-.02.02h0l-.02.03h0l-.02.02h0l-.02.03h0l-5.77 12.1h0l-.01.03h0l-.01.03h0l-.01.04h0v.03h0v.07h0v.03h0l.01.04h0l.02.03h0l.01.03h0l.02.03h0l.02.02h0l.03.03h0l.02.02h0l.03.02h0l.03.02h0M224.13 9.44l5.77 12.1h0l.01.02h0l.02.03h0l.02.02h0l.03.03h0l.02.02h0l.03.02h0l.03.02h0l.03.01h0l.04.01h.03l.03.01h.07l.04-.01h0l.03-.01h0l.03-.01h0l12.1-5.77h0l.03-.02h0l.02-.02h0l.03-.02h0l.02-.02h0l.03-.03h0l.02-.03h0l.01-.03h0l.02-.03h0v-.03h0l.01-.04h0v-.03h0v-.03h0v-.04h0v-.03h0l-.01-.04h0l-.02-.03h0l-5.77-12.1h0l-.01-.02h0l-.02-.03h0l-.02-.03h0l-.03-.02h0l-.02-.02h0l-.03-.02h0l-.03-.02h0l-.03-.01h0l-.04-.01h0-.03 0l-.03-.01h0-.04 0-.03 0-.04 0l-.03.02h0l-.03.01h0l-12.1 5.77h0l-.03.02h0l-.02.01h0l-.03.03h0l-.03.02h0l-.02.03h0l-.02.03h0l-.01.03h0l-.02.03h0v.03h0l-.01.03h0v.04h0v.03h0v.04h0v.03h0l.01.03h0l.02.04h0M222.3 49.86l5.77 12.1h0l.02.02h0l.01.03h0l.03.03h0l.02.02h0l.03.02h0l.03.02h0l.03.02h0l.03.01h0l.03.01h.03v.01h.14l.03-.02h0l.03-.01h0l12.1-5.77h0l.03-.01h0l.03-.02h0l.02-.03h0l.03-.02h0l.02-.03h0l.02-.02h0l.02-.04h0l.01-.03h0l.01-.03h0v-.03h0l.01-.04h0v-.03h0v-.04h0l-.01-.03h0l-.01-.03h0l-.01-.03h0l-5.77-12.1h0l-.02-.03h0l-.02-.03h0l-.02-.02h0l-.02-.03h0l-.03-.02h0l-.03-.02h0l-.03-.02h0-.03v-.01h-.03v-.01h-.04 0-.03v-.01h-.03 0-.04 0l-.03.01h0l-.04.01h0l-.03.01h0l-12.1 5.77h0l-.02.02h0l-.03.02h0l-.03.02h0l-.02.02h0l-.02.03h0l-.02.03h0l-.02.03h0l-.01.03h0l-.01.03h0v.04h0l-.01.03h0v.07h0v.03h0l.02.04h0l.01.03h0M21.48 56.35l12.1 5.77h0l.02.01h0l.04.01h.03l.03.01H33.81l.03-.02h.03v-.01l.03-.01h0l.03-.02h0l.03-.03h0l.02-.02h0L34 62h0l.02-.02h0l.02-.03h0l5.77-12.1h0l.01-.03h0l.01-.03h0l.01-.04h0v-.03h0v-.07h0v-.03h0l-.01-.04h0l-.02-.03h0l-.01-.03h0l-.02-.03h0l-.02-.02h0l-.03-.03h0l-.02-.02h0l-.03-.02h0l-.03-.02h0l-12.1-5.77h0-.03v-.01h-.03v-.01h-.04l-.03-.01h0-.03 0-.04 0l-.03.01h0-.03v.01l-.04.01h0l-.03.02h0l-.03.02h0l-.02.02h0l-.03.02h0l-.02.03h0l-.02.03h0l-.01.03h0l-5.77 12.1h0l-.02.02h0v.04h0l-.01.03h0v.03h0v.04h0v.03h0v.04h0l.01.03h0l.01.03h0l.02.03h0l.02.03h0l.02.03h0l.02.02h0l.03.02h0l.03.02h0l.03.02h0M240.53 43.82l5.77 12.1h0l.01.03h0l.02.03h0l.02.02h0l.03.03h0l.02.02h0l.03.02h0l.03.01h0l.03.02h.04l.03.01h.14l.03-.01h0l.03-.02h0l12.1-5.77h0l.03-.01h0l.03-.02h0l.02-.02h0l.03-.02h0l.02-.03h0l.02-.03h0l.01-.03h0l.02-.03h0v-.03h0l.01-.04h0v-.03h0v-.04h0v-.03h0v-.03h0l-.01-.04h0l-.02-.03h0l-5.77-12.1h0l-.01-.02h0l-.02-.03h0l-.02-.03h0l-.03-.02h0l-.02-.03h0l-.03-.01h0l-.03-.02h0l-.03-.01h0l-.04-.01h0l-.03-.01h0-.03 0-.04 0-.03 0-.04 0l-.03.02h0-.03 0l-12.1 5.78h0l-.02.01h0l-.03.02h0l-.03.02h0l-.02.03h0l-.03.02h0l-.02.03h0l-.01.03h0l-.01.03v.01l-.01.03h0l-.01.03h0v.04h0v.03h0v.03h0v.04h0l.01.03h0l.02.03h0M3.25 50.31l12.1 5.77h0l.03.02h.03l.03.01h.14l.03-.01h0l.03-.01h0l.04-.02h0l.02-.02h0l.03-.02h0l.03-.02h0l.02-.03h0l.02-.03h0l.01-.03h0l5.77-12.1h0l.02-.02v-.04h0l.01-.03h0v-.04h0v-.03h0v-.03h0v-.04h0l-.01-.03h0l-.01-.03h0l-.02-.03h0l-.02-.03h0l-.02-.03h0l-.02-.02h0l-.03-.03h0l-.03-.01h0l-.03-.02h0l-12.1-5.77h0l-.03-.01h0l-.03-.01h0l-.03-.01h0-.04 0-.03 0-.03 0-.04 0l-.03.01h0l-.03.02h0L9 37.6h0l-.03.02h0l-.03.02h0l-.02.03h0l-.03.02h0l-.01.03h0l-.02.03h0l-5.77 12.1h0l-.01.03h0l-.01.03h0l-.01.03h0v.04h0v.03h0v.04h0v.03h0l.01.03h0l.02.04h0l.01.03h0l.02.02h0l.02.03h0l.03.03h0l.02.02h0l.03.02h0l.03.01h0M62.62 58.6l12.1 5.77h0l.02.01h0l.04.01h0l.03.01h.14l.03-.01h0l.03-.02h0l.03-.01h0l.03-.02h0l.03-.02h0l.02-.03h0l.02-.02h0l.02-.03h0l.02-.03h0l5.77-12.1h0l.01-.03h0l.01-.03h0v-.03h.01v-.04h0v-.03h0v-.04h0v-.03h0l-.02-.03h0v-.04h-.01l-.01-.03h0l-.02-.03h0l-.02-.02h0l-.03-.03h0l-.02-.02h0l-.03-.02h0l-.03-.01h0l-12.1-5.77h0l-.03-.02h0-.03 0l-.04-.01h0-.03 0-.03 0-.04 0-.03 0l-.03.01h0l-.04.01h0l-.03.02h0l-.03.02h0l-.02.02h0l-.03.02h0l-.02.03h0l-.02.03h0l-.02.03h0l-5.77 12.1h0v.02h0l-.02.04h0v.03h0v.07h0v.03h0v.04h0l.01.03h0l.01.03h0l.02.03h0l.02.03h0l.02.03h0l.02.02h0l.03.02h0l.03.02h0l.03.02h0M181.16 52.1l5.77 12.1h0l.02.03h0l.02.03h0l.02.03h0l.02.02h0l.03.02h0l.03.02h0l.03.02h0l.03.01h0l.03.01h.04l.03.01h.1l.04-.02h0l.03-.01h0l12.1-5.77h0l.02-.02h0l.03-.02h0l.03-.02h0l.02-.02h0l.02-.03h0l.02-.03h0l.02-.03h0l.01-.03h0l.01-.03h0l.01-.03h0v-.04h0v-.03h0v-.04h0v-.03h0l-.02-.03h0v-.04h-.01l-5.77-12.1h0l-.01-.02h0l-.02-.03h0l-.03-.03h0l-.02-.02h0l-.03-.02h0l-.02-.02h0l-.03-.02h0l-.04-.01h0l-.03-.01h0-.03 0l-.04-.01h0-.03 0-.04 0-.03v.01h-.03v.01l-.03.01h0l-12.1 5.77h0l-.03.02h0l-.03.02h0l-.02.02h0l-.03.02h0l-.02.03h0l-.02.03h0l-.02.03h0v.03h-.01v.03h-.01v.04h0v.03h0v.03h0v.04h0v.03h0l.01.03h0l.01.04h0M84.57 56.83l12.1 5.77h0l.02.01h0l.04.01h.03l.03.01H96.9l.03-.02h0l.03-.01h0l.03-.02h0l.03-.01h0l.03-.03h0l.02-.02h0l.02-.03h0l.02-.02h0l.02-.04h0l5.77-12.1h0l.01-.02h0l.01-.03h0v-.04h.01v-.03h0v-.04h0v-.03h0v-.03h0l-.02-.04h0v-.03h-.01l-.01-.03h0l-.02-.03h0l-.02-.02h0l-.03-.03h0l-.03-.02h0l-.02-.02h0l-.03-.02h0l-12.1-5.77h0-.03v-.01l-.03-.01h0-.04 0l-.03-.01h0-.03 0-.04 0-.03v.01h-.04v.01l-.03.01h0l-.03.02h0l-.03.02h0l-.02.02h0l-.03.02h0l-.02.03h0l-.02.03h0l-.02.03h0l-5.77 12.1h0v.02h-.01v.03h-.01v.04h0v.03h0l-.01.04h0v.03h0l.01.03h0v.04h.01l.01.03h0l.02.03h0l.02.03h0l.02.03h0l.02.02h0l.03.02h0l.03.02h0l.03.02h0M101.07 66.47l12.1 5.77h0l.03.01h0l.03.01h0l.03.01h.14l.03-.01h0l.04-.02h0l.03-.01h0l.02-.02h0l.03-.02h0l.03-.03h0l.02-.02h0l.02-.03h0l.01-.03h0l5.77-12.1h0l.02-.03h0v-.03h0l.01-.03h0v-.04h0v-.03h0v-.04h0v-.03h0l-.01-.03h0l-.01-.03h0l-.02-.04h0l-.02-.02h0l-.02-.03h0l-.02-.03h0l-.03-.02h0l-.03-.02h0l-.03-.01h0l-12.1-5.77h0l-.03-.02h0-.03 0l-.03-.01h0-.04 0-.03 0-.03 0-.04 0l-.03.01h0l-.03.01h0l-.03.02h0l-.03.02h0l-.03.02h0l-.02.02h0l-.03.03h0l-.01.03h0l-.02.03h0l-5.77 12.1h0l-.01.03h0l-.01.03h0l-.01.03h0v.04h0v.03h0v.03h0v.04h0l.01.03h0l.02.03h0l.01.03h0l.02.03h0l.02.03h0l.03.02h0l.02.03h0l.03.01h0l.03.02h0M142.7 59.98l5.78 12.1h0l.01.03h0l.02.02h0l.02.03h0l.03.02h0l.02.03h0l.03.02h0l.03.01h0l.03.02h.04l.03.01h.14l.03-.01h0l.03-.02h0l12.1-5.77h0l.03-.01h0l.02-.02h0l.03-.02h0l.02-.03h0l.03-.02h0l.02-.03h0l.01-.03h0l.02-.03h0v-.04h0l.01-.03h0v-.03h0v-.04h0v-.03h0v-.04h0l-.01-.03h0l-.02-.03h0l-5.77-12.1h0l-.01-.03h0l-.02-.02h0l-.02-.03h0l-.03-.03h0l-.02-.02h0l-.03-.02h0l-.03-.01h0l-.03-.02h0-.04 0l-.03-.01h0-.03 0-.04 0-.03 0-.04 0l-.03.01h0l-.03.02h0l-12.1 5.77h0l-.03.01h0l-.02.02h0l-.03.02h0l-.03.03h0l-.02.02h0l-.02.03h0l-.01.03h0l-.02.03h0v.04h0l-.01.03h0v.03h0v.04h0v.03h0v.04h0l.01.03h0l.02.03h0M159.21 50.34l5.77 12.1h0l.02.02h0l.02.03h0l.02.03h0l.02.02h0l.03.02h0l.03.02h0l.03.02h0l.03.01h0l.03.01h.04l.03.01h.1v-.01h.03v-.01l.04-.01h0l12.1-5.77h0l.02-.02h0l.03-.02h0l.03-.02h0l.02-.02h0l.02-.03h0l.02-.03h0l.02-.03h0l.01-.03h0l.01-.03h0v-.03h0l.01-.04h0v-.03h0v-.04h0v-.03h-.01v-.03h-.01l-.01-.04h0l-5.77-12.1h0l-.02-.02h0l-.02-.03h0l-.02-.03h0l-.02-.02h0l-.03-.02h0l-.03-.02h0l-.03-.02h0l-.03-.01h0l-.03-.01h0-.04l-.03-.01h0-.03 0-.04 0-.03v.01h-.03v.01l-.04.01h0l-12.1 5.77h0l-.02.02h0l-.03.02h0l-.03.02h0l-.02.02h0l-.02.03h0l-.02.03h0l-.02.03h0l-.01.03h0l-.01.03h0v.04h0l-.01.03h0v.03h0v.04h0v.03h.01v.03h.01l.01.04h0M43.53 54.37l12.1 5.77h0l.02.01h0l.04.01h.03v.01h.14l.03-.02h.03v-.01l.03-.01h0l.03-.02h0l.03-.02h0l.02-.03h0l.02-.02h0l.02-.03h0l.02-.03h0l5.77-12.1h0l.01-.03h0l.01-.03h0l.01-.04h0v-.03h0v-.03h0v-.04h0v-.03h0l-.01-.03h0l-.02-.04h0l-.01-.03h0l-.02-.03h0l-.02-.02h0l-.03-.03h0l-.02-.02h0l-.03-.02h0l-.03-.02h0l-12.1-5.77h0-.03 0l-.03-.02h0-.07 0-.03 0-.04 0-.03 0l-.03.01h0l-.04.01h0l-.03.02h0l-.03.02h0l-.02.02h0l-.03.02h0l-.02.03h0l-.02.03h0l-.01.03h0l-5.77 12.1h0l-.02.02h0v.04h0l-.01.03h0v.03h0v.04h0v.03h0v.04h0l.01.03h0l.01.03h0l.02.03h0l.02.03h0l.02.03h0l.02.02h0l.03.02h0l.03.02h0l.03.02h0M200.25 47.88l5.77 12.1h0l.02.02h0l.01.03h0l.03.03h0l.02.02h0l.03.02h0l.03.02h0l.03.02h0l.03.01h0l.03.01h0l.03.01h.14l.03-.02h.03v-.01l12.1-5.77h0l.03-.01h0l.03-.02h0l.02-.02h0l.03-.03h0l.02-.03h0l.02-.02h0l.02-.03h0l.01-.04h0l.01-.03h0v-.03h0l.01-.04h0v-.03h0V54l-.01-.03h0l-.01-.03h0l-.01-.03h0l-5.77-12.1h0l-.02-.03h0l-.02-.03h0l-.02-.02h0l-.02-.03h0l-.03-.02h0l-.03-.02h0l-.03-.01h0l-.03-.02h0-.03 0l-.04-.01h0-.03 0-.03 0-.04 0-.03 0l-.04.01h0l-.03.01h0l-12.1 5.77h0l-.02.02h0l-.03.02h0l-.03.02h0l-.02.02h0l-.02.03h0l-.02.03h0l-.02.03h0l-.01.03h0l-.01.03h0v.04h0l-.01.03h0v.04h0v.03h0v.03h0l.02.04h0l.01.03h0M172.96 34.92l5.77 12.1h0l.02.02h0l.02.03h0l.02.02h0l.02.03h0l.03.02h0l.03.02h0l.03.02h.03v.01h.03v.01h.17l.03-.01h0l.04-.01h0l12.1-5.77h0l.02-.02h0l.03-.02h0l.03-.02h0l.02-.02h0l.02-.03h0l.02-.03h0l.02-.03h0l.01-.03h0l.01-.03h0v-.04h0l.01-.03h0v-.04h0v-.03h0V41h-.01v-.04h-.01l-.01-.03h0l-5.77-12.1h0l-.02-.02h0l-.02-.03h0l-.02-.03h0l-.02-.02h0l-.03-.02h0l-.03-.02h0l-.03-.02h0l-.03-.01h0l-.03-.01h0-.03l-.01-.01h-.03 0-.03 0-.04 0-.03 0l-.03.02h0l-.04.01h0l-12.1 5.77h0l-.02.01h0l-.03.02h0l-.03.03h0l-.02.02h0l-.02.03h0l-.02.02h0l-.02.03h0l-.01.04h0l-.01.03h0v.03h0l-.01.04h0v.03h0v.04h0v.03h.01v.03h.01l.01.03h0M70.82 41.4l12.1 5.78h.02l.04.02h.17l.03-.01h0l.03-.01h0l.03-.02h0l.03-.02h0l.03-.02h0l.02-.02h0l.02-.03h0l.02-.03h0l.02-.03h0l5.77-12.1h0l.01-.02h0l.01-.04h0v-.03h.01v-.03h0v-.04h0v-.03h0v-.04h0l-.02-.03h0v-.03h-.01l-.01-.03h0l-.02-.03h0l-.02-.03h0l-.03-.02h0l-.03-.02h0l-.02-.02h0l-.03-.02h0l-12.1-5.77h0l-.03-.01h0l-.03-.01h0-.04v-.01h-.03 0-.03 0-.04 0-.03 0l-.04.02h0-.03v.01l-.03.01h0l-.03.02h0l-.02.02h0l-.03.03h0l-.02.02h0l-.02.03h0l-.02.03h0l-5.77 12.1h0v.03h-.01V41h-.01v.04h0v.03h-.01v.03h0v.04h0l.01.03h0v.03h.01l.01.04h0l.02.03h0l.02.03h0l.02.02h0l.02.03h0l.03.02h0l.03.02h0l.03.02h0M134.5 42.79l5.78 12.1h0l.01.02h0l.02.03h0l.02.03h0l.02.02h0l.03.02h0l.03.02h0l.03.02h0l.03.01h0l.03.01h.04v.01h.13l.04-.02h0l.03-.01h0l12.1-5.77h0l.02-.01h0l.03-.02h0l.03-.03h0l.02-.02h0l.03-.03h0l.01-.02h0l.02-.03h0l.01-.04h0l.01-.03h0l.01-.03h0v-.04h0v-.03h0v-.04h0v-.03h0l-.01-.03h0l-.02-.03h0l-5.77-12.1h0l-.01-.03h0l-.02-.03h0l-.02-.02h0l-.03-.03h0l-.02-.02h0l-.03-.02h0l-.03-.02h0-.03v-.01H147v-.01h-.03 0-.04 0-.03 0-.03 0-.04 0l-.03.01h0l-.03.01h0l-12.1 5.77h0l-.03.02h0l-.03.02h0l-.02.02h0l-.03.02h0l-.02.03h0l-.02.03h0l-.01.03h0l-.02.03h0v.03h0l-.01.04h0v.03h0v.04h0v.03h0v.03h0l.01.04h0l.02.03h0M109.28 49.28l12.1 5.77h0l.02.01h0l.03.01h.04v.01h.13l.04-.02h.03v-.01l.03-.01h0l.03-.02h0l.02-.02h0l.03-.03h0l.02-.03h0l.02-.02h0l.02-.03h0l5.77-12.1h0v-.03h.01v-.03h.01v-.04h0v-.03h.01v-.03h0v-.04h0l-.01-.03h0v-.04h-.01l-.01-.03h0l-.02-.03h0l-.02-.03h0l-.02-.02h0l-.02-.03h0l-.03-.02h0l-.03-.02h0l-.03-.02h0l-12.1-5.77h0-.02 0l-.04-.02h0-.03 0-.03 0-.04 0-.03 0-.04 0l-.03.01h0l-.03.01h0l-.03.02h0l-.03.02h0l-.03.02h0l-.02.02h0l-.02.03h0l-.02.03h0l-.02.03h0l-5.77 12.1h0l-.01.02h0l-.01.04h0v.03h-.01v.03h0v.04h0v.03h0v.04h0l.02.03h0v.03h.01l.01.03h0l.02.03h0l.03.03h0l.02.02h0l.03.02h0l.02.02h0l.03.02h0M214.1 32.66l5.77 12.1h0l.01.03h0l.02.03h0l.02.02h0l.03.03h0l.03.02h0l.02.02h0l.03.01h0l.04.02h.03l.03.01h.14l.03-.01h0l.03-.02h0l12.1-5.76h0l.03-.02h0l.03-.02h0l.02-.02h0l.03-.02h0l.02-.03h0l.02-.03h0l.01-.03h0l.02-.03h0v-.03h0l.01-.04h0v-.03h0v-.04h0v-.03h0v-.03h0l-.01-.04h0l-.01-.03h0l-5.77-12.1h0l-.02-.02h0l-.02-.03h0l-.02-.03h0l-.02-.02h0l-.03-.03h0l-.03-.01h0l-.03-.02h0l-.03-.01h0l-.03-.01h0l-.04-.01h0-.03 0-.04 0-.03 0-.03 0l-.04.02h0-.03 0l-12.1 5.78h0l-.02.01h0l-.03.02h0l-.03.02h0l-.02.03h0l-.03.02h0l-.01.03h0l-.02.03h0l-.01.03v.01l-.01.03h0l-.01.03h0v.04h0v.03h0v.03h0v.04h0l.02.03h0v.03h.01M29.68 39.16l12.1 5.77h.03v.01h.03v.01h.03l.04.01H42v-.01h.03v-.01l.03-.01h0l.03-.02h0l.03-.02h0l.03-.02h0l.02-.02h0l.03-.03h0l.02-.03h0l.01-.03h0l5.77-12.1h0l.01-.02h0l.01-.04h0l.01-.03h0v-.03h0v-.04h0v-.03h0v-.04h0l-.01-.03h0l-.02-.03h0l-.01-.03h0l-.02-.03h0l-.02-.03h0l-.03-.02h0l-.02-.02h0l-.03-.02h0l-.03-.02h0l-12.1-5.77h0l-.03-.01h0l-.03-.01h0-.03 0l-.04-.01h0-.03 0-.04 0-.03 0l-.03.02h0-.03v.01l-.03.02h0l-.03.01h0l-.03.03h0l-.02.02h0l-.03.03h0l-.02.02h0l-.01.03h0l-5.77 12.1h0l-.02.03h0v.03h0l-.01.04h0v.03h0v.04h0v.03h0v.03h0l.01.04h0l.02.03h0l.01.03h0l.02.03h0l.02.02h0l.03.03h0l.02.02h0l.03.02h0l.03.02h0M151.01 33.14l5.77 12.1h0l.02.03h0l.01.02h0l.03.03h0l.02.03h0l.03.02h0l.02.02h0l.04.01h0l.03.02h.03l.03.01h.14l.03-.01h0l.03-.02h0l12.1-5.77h0l.03-.01h0l.03-.02h0l.02-.02h0l.03-.03h0l.02-.02h0l.02-.03h0l.02-.03h0v-.03h.01v-.04h.01v-.03h0l.01-.03h0v-.04h0v-.03h0l-.01-.04h0l-.01-.03h0l-.01-.03h0l-5.77-12.1h0l-.02-.03h0l-.02-.02h0l-.02-.03h0l-.02-.02h0l-.03-.03h0l-.03-.02h0l-.03-.01h0l-.03-.02h0-.03 0l-.04-.01h0-.03 0-.07 0-.03 0l-.04.01h0l-.03.02h0l-12.1 5.77h0l-.02.01h0l-.03.02h0l-.03.02h0l-.02.03h0l-.02.02h0l-.02.03h0l-.02.03h0l-.01.03h0l-.01.04h0v.03h-.01v.03h0v.04h0v.03h0v.04h0l.02.03h0l.01.03h0M92.77 39.63l12.1 5.77h0l.03.01h0l.03.02h.17l.03-.01h0l.03-.02h0l.03-.01h0l.03-.02h0l.03-.02h0l.02-.03h0l.03-.02h0l.01-.03h0l.02-.03h0l5.77-12.1h0l.01-.03h0l.01-.03h0l.01-.03h0V33h0v-.03h0v-.04h0v-.03h0l-.01-.03h0l-.02-.03h0l-.01-.03h0l-.02-.03h0l-.02-.03h0l-.03-.02h0l-.02-.03h0l-.03-.02h0l-.03-.01h0l-12.1-5.77h0l-.03-.01h0l-.03-.01h0l-.03-.01h0-.04 0-.03 0-.04 0-.03 0l-.03.01h0l-.04.02h0l-.03.01h0l-.02.02h0l-.03.02h0l-.03.03h0l-.02.02h0l-.02.03h0l-.01.03h0l-5.77 12.1h0l-.02.03h0v.03h0l-.01.03h0v.04h0v.03h0v.04h0v.03h0l.01.03h0l.01.03h0l.02.03h0l.02.03h0l.02.03h0l.02.02h0l.03.03h0l.03.02h0l.03.01h0M232.33 26.63l5.77 12.1h0l.01.02h0l.02.03h0l.02.03h0l.03.02h0l.02.03h0l.03.02h0l.03.01h0l.03.01h.01l.03.01h0l.03.01h.14l.03-.01h0l.03-.02h0l12.1-5.77h0l.03-.01h0l.03-.02h0l.02-.02h0l.03-.03h0l.02-.02h0l.02-.03h0l.01-.03h0l.02-.03h0v-.04h0l.01-.03h0v-.07h0v-.03h0v-.04h0l-.01-.03h0l-.01-.03h0l-5.77-12.1h0l-.02-.03h0l-.02-.03h0l-.02-.02h0l-.02-.03h0l-.03-.02h0l-.03-.02h0l-.03-.01h0l-.03-.02h0-.03 0l-.04-.01h0-.03 0-.04 0-.03 0-.03 0l-.04.01h0l-.03.02h0l-12.1 5.77h0l-.02.01h0l-.03.02h0l-.03.02h0l-.02.03h0l-.03.02h0l-.01.03h0l-.02.03h0l-.01.03h0l-.01.04h0l-.01.03h0v.03h0v.04h0v.03h0v.04h0l.02.03h0v.03h0M11.46 33.12l12.09 5.77h0l.03.01h0l.03.01h0l.04.01h.13l.03-.01h0l.04-.02h0l.03-.01h0l.03-.02h0l.02-.02h0l.03-.03h0l.02-.02h0l.02-.03h0l.02-.03h0l5.77-12.1h0v-.03h0l.02-.03h0v-.03h0v-.04h0v-.03h0v-.04h0v-.03h0l-.01-.03h0l-.01-.03h0l-.02-.04h0l-.02-.02h0l-.02-.03h0l-.02-.03h0l-.03-.02h0l-.03-.02h0l-.03-.01h0l-12.1-5.77h0l-.02-.02h0-.04 0l-.03-.01h0-.03 0-.04 0-.03 0-.04 0l-.03.01h0l-.03.01h0l-.03.02h0l-.03.02h0l-.03.02h0l-.02.02h0l-.02.03h0l-.02.03h0l-.02.03h0l-5.77 12.1h0l-.01.03h0l-.01.03h0v.03h-.01v.04h0v.03h0v.03h0v.04h0l.02.03h0v.03h.01l.01.03h0l.02.03h0l.02.03h0l.03.02h0l.02.03h0l.03.01h0l.03.02h0M51.73 37.18l12.1 5.76h0l.03.02h.03l.03.01h.14l.03-.01h0l.03-.01h0l.03-.02h0l.03-.02h0l.03-.02h0l.02-.02h0l.03-.03h0l.02-.03h0l.01-.03h0l5.77-12.1h0l.01-.02h0l.01-.04h0l.01-.03h0v-.03h0v-.04h0v-.03h0v-.04h0l-.01-.03h0l-.02-.03h0l-.01-.03h0l-.02-.03h0L70 30.3h0l-.03-.02h0l-.02-.02h0l-.03-.02h0l-.03-.02h0l-12.1-5.77h0l-.03-.01h0l-.03-.01h0l-.03-.01h0-.04 0-.03 0-.04 0-.03 0l-.03.01h0l-.03.02h0l-.03.01h0l-.03.02h0l-.03.02h0l-.02.03h0l-.03.02h0l-.02.03h0l-.01.03h0l-5.77 12.1h0l-.01.03h0l-.02.03h0v.07h0v.03h0v.04h0v.03h0l.01.03h0l.02.04h0l.01.03h0l.02.03h0l.02.02h0l.03.03h0l.02.02h0l.03.02h0l.03.01h0M192.05 30.69l5.77 12.09h0l.01.03h0l.02.03h0l.02.02h0l.03.03h0l.02.02h0l.03.02h0l.03.01h0l.04.02h.03l.03.01h.14l.03-.01h0l.03-.01h0l12.1-5.77h0l.03-.02h0l.03-.02h0l.02-.02h0l.03-.02h0l.02-.03h0l.02-.03h0l.01-.03h0l.02-.03h0v-.03h0l.01-.04h0v-.03h0v-.04h0v-.03h0v-.03h0l-.01-.04h0l-.01-.03h0l-5.77-12.1h0l-.02-.02h0l-.02-.03h0l-.02-.03h0l-.02-.02h0l-.03-.02h0l-.03-.02h0l-.03-.02h0l-.03-.01h0l-.03-.01h0l-.04-.01h0-.03 0-.04 0-.03 0-.03 0l-.04.02h0-.03v.01l-12.1 5.77h0l-.02.01h0l-.03.02h0l-.03.02h0l-.02.03h0l-.03.03h0l-.01.02h0l-.02.03h0l-.01.04h0l-.01.03h0l-.01.03h0v.04h0v.03h0v.04h0v.03h0l.02.03h0v.03h.01" stroke-width=".26458"/>
  </g>
  <text x="236.52" y="73.94" fill="red" font-family="Spartan" font-size="10.58" letter-spacing="0" stroke-width=".26" word-spacing="0" style="line-height:1.25">
    <tspan x="236.52" y="73.94">mk3</tspan>
  </text>
  <g>
    <g fill="none" stroke="#0ff">
      <path d="M5.66 58.52l-.14-.06-.12-.07-.13-.09-.1-.09-.11-.1-.1-.12-.07-.12-.07-.13-.06-.14-.04-.14-.03-.15V57.02l.01-.15.03-.14.18-.69.02-.07L20.77 5.75l.02-.07.25-.67.05-.13.07-.13.09-.12.1-.12.1-.1.11-.1.13-.07.13-.07.13-.05.14-.05.15-.02.15-.02h.14l.15.02.14.03.7.18.06.02 3.92 1.24 10.59 2.5h.03l1.68.45 8.68 1.82 8.82.97 1.52.09.14.01.15.03 3.5.92h.05l.15-.02h.14l.15.02.14.02 6.84 1.7 3.24.4.15.03.15.04.1.04 3.93.62.15.04 2.02.53.07.02 13.89 4.37.07.03 5.92 2.2 8.73 2.73 8.93 1.83 9.07.92h9.1l9.07-.92 8.93-1.83 8.73-2.74 5.93-2.2.07-.02 13.88-4.37.07-.02 2.02-.53.15-.04 3.26-.51.07-.01 2.16-.24 8.77-1.86 4.33-1.15.15-.03.15-.02 1.46-.08 8.82-.97 8.68-1.82 1.68-.44.04-.01 10.58-2.5 3.92-1.24.07-.02.69-.18.14-.03.15-.01H239.86l.15.03.14.05.14.05.13.07.12.08.11.1.1.1.1.1.09.13.07.13.06.13.24.67.03.07 15.83 50.22.02.07.18.69.03.14.02.15v.15l-.01.14-.03.15-.04.14-.06.14-.06.13-.08.12-.1.11-.1.11-.11.1-.12.08-.13.07-.14.06-.67.24-.07.03-10.88 3.43-7.64 2.8-7.32 3.44-6.99 4.1-6.58 4.7-6.14 5.29-5.66 5.83-2.5 2.8-.1.11-.1.1-.13.08-.13.07-.13.06-1.66.61-.07.03-6.9 2.17-8.92 3.34-8.49 4.24-7.99 5.11-7.44 5.95-5.4 4.81-.06.05-1.1.88-.12.1-.13.07-.13.06-.14.05-.14.03-.15.02H152.27l-.15-.03-2.67-.55-9.17-1.43-9.23-.47-9.23.47-9.17 1.43-2.67.55-.15.03H109.54l-.15-.02-.14-.03-.14-.05-.13-.06-.13-.08-.12-.09-1.1-.88-.05-.05-5.4-4.8-7.45-5.96-7.99-5.1-8.48-4.25-8.92-3.34-6.9-2.17-.08-.03-1.65-.61-.14-.06-.13-.07-.12-.08-.11-.1-.1-.1-2.5-2.81-5.65-5.83-6.14-5.28-6.59-4.71-6.98-4.1-7.33-3.45-7.63-2.79-10.9-3.43-.06-.03-.67-.24" stroke-width=".26458"/>
      <path d="M36.44 10.98l-4.2 13.36-13.36-4.21 4.21-13.36 13.35 4.21M54.9 15.76l-4.2 13.35-13.35-4.2 4.2-13.36 13.36 4.21M73.98 18.63l-4.21 13.35-13.35-4.21 4.2-13.35 13.36 4.2M92.75 22.45L88.54 35.8l-13.35-4.2 4.2-13.36 13.36 4.2M110.32 30.08l-4.21 13.36-13.36-4.21 4.21-13.36 13.36 4.21M127.88 37.72l-4.2 13.35-13.36-4.2 4.21-13.36 13.35 4.21M147.57 33.5l4.2 13.36-13.34 4.21-4.21-13.35 13.35-4.21M165.14 25.87l4.2 13.35L156 43.43l-4.2-13.35 13.35-4.2M182.7 18.24l4.21 13.35-13.35 4.2-4.21-13.34 13.35-4.21M201.47 14.42l4.21 13.35-13.35 4.2-4.2-13.34 13.34-4.21M220.54 11.55l4.21 13.35-13.35 4.21-4.21-13.35 13.35-4.2M239.01 6.77l4.21 13.36-13.35 4.2-4.21-13.35 13.35-4.2M30.71 29.15l-4.2 13.35-13.36-4.2 4.21-13.36 13.35 4.21M49.18 33.93l-4.2 13.35-13.36-4.2 4.2-13.36 13.36 4.2M68.25 36.8l-4.2 13.35-13.36-4.21 4.21-13.36 13.35 4.21M87.02 40.61l-4.2 13.36-13.36-4.21 4.2-13.36 13.36 4.21M104.59 48.25l-4.21 13.35-13.35-4.2 4.2-13.36 13.36 4.21M122.15 55.89l-4.2 13.35-13.36-4.21 4.21-13.35 13.35 4.2M153.3 51.68l4.2 13.35-13.34 4.2-4.21-13.34 13.35-4.21M170.86 44.04l4.21 13.35-13.35 4.21-4.2-13.35 13.34-4.2M188.43 36.4l4.21 13.36-13.35 4.2-4.21-13.35 13.35-4.2M207.2 32.58l4.21 13.36-13.35 4.2-4.21-13.35 13.35-4.2M226.27 29.72l4.2 13.35-13.34 4.2-4.21-13.34 13.35-4.21M244.74 24.94l4.21 13.36-13.35 4.2-4.21-13.35 13.35-4.2M24.99 47.32l-4.21 13.35-13.36-4.2 4.21-13.36L25 47.32M43.45 52.1l-4.2 13.35-13.36-4.21 4.21-13.35 13.35 4.2M62.52 54.96l-4.2 13.35-13.36-4.2 4.21-13.36 13.35 4.21M81.3 58.78l-4.22 13.36-13.35-4.21 4.21-13.36 13.35 4.21M98.86 66.42l-4.21 13.35-13.35-4.2 4.2-13.36 13.36 4.2M116.43 74.05l-4.21 13.36-13.36-4.21 4.21-13.35 13.36 4.2M159.03 69.85l4.2 13.35-13.35 4.2-4.2-13.34 13.35-4.21M176.6 62.21l4.2 13.35-13.35 4.21-4.21-13.35 13.35-4.21M194.16 54.57l4.21 13.36-13.35 4.2-4.21-13.35 13.35-4.2M212.93 50.75l4.2 13.36-13.34 4.2-4.21-13.35 13.35-4.2M232 47.89l4.2 13.35-13.34 4.2-4.21-13.34L232 47.89M250.47 43.11l4.2 13.35-13.34 4.21-4.21-13.35 13.35-4.2M81.02 80.77L76.8 94.12l-13.35-4.2 4.2-13.36 13.36 4.21M100.99 91.07l-6.92 12.17-12.17-6.9 6.91-12.18 12.18 6.9M118.35 105.33l-9.3 10.46-10.46-9.31 9.3-10.46 10.46 9.3M154.2 96.02l9.31 10.45-10.46 9.31-9.3-10.46 10.45-9.3M173.29 84.16l6.9 12.18-12.17 6.91-6.9-12.17 12.17-6.92M194.43 76.56l4.21 13.35-13.35 4.2-4.2-13.34 13.34-4.21" stroke-width=".26458"/>
    </g>
    <text x="205.52" y="95.67" fill="#0ff" font-family="Spartan" font-size="10.58" letter-spacing="0" stroke-width=".26" word-spacing="0" style="line-height:1.25">
      <tspan x="205.52" y="95.67">mk1</tspan>
    </text>
  </g>
</svg>
